<?xml version="1.0" encoding="utf-8"?>
<!-- Generator: Adobe Illustrator 27.2.0, SVG Export Plug-In . SVG Version: 6.00 Build 0)  -->
<svg version="1.1" id="Capa_1" xmlns="http://www.w3.org/2000/svg" xmlns:xlink="http://www.w3.org/1999/xlink" x="0px" y="0px"
	 viewBox="0 0 2000 2000" style="enable-background:new 0 0 2000 2000;" xml:space="preserve">
<style type="text/css">
	.st0{fill:#0066CC;}
	.st1{clip-path:url(#SVGID_00000029762674231081171190000006702009742581661827_);fill:#0066CC;}
	.st2{fill:#FFFFFF;}
	.st3{clip-path:url(#SVGID_00000065048126642876169180000001478447335991326103_);fill:#FFFFFF;}
	.st4{clip-path:url(#SVGID_00000126324473686327038990000016351459877001216673_);}
	.st5{fill:#004C99;}
	.st6{fill:#1A85FF;}
	.st7{fill:#B3DAFF;}
</style>
<g>
	<g>
		<g>
			<path class="st0" d="M514.98,1688.99c-17.18,14.55-39.14,21.83-65.88,21.83c-26.74,0-45.65-7.28-56.74-21.83
				c-15.15-17.85-19.12-43.58-11.93-77.17c7.28-34.27,22.21-59.99,44.81-77.17c17.18-14.55,39.14-21.83,65.88-21.83
				c26.74,0,45.65,7.28,56.74,21.83c15.23,17.18,19.21,42.9,11.93,77.17C552.59,1645.41,537.66,1671.14,514.98,1688.99z
				 M520.69,1611.82c4.4-20.98,3.28-37.21-3.36-48.68c-6.64-11.47-17.71-17.2-33.19-17.2c-15.49,0-29.05,5.71-40.68,17.13
				c-11.64,11.42-19.7,27.67-24.18,48.74c-4.49,21.07-3.34,37.32,3.43,48.74c6.77,11.42,17.9,17.13,33.38,17.13
				c15.49,0,29-5.71,40.55-17.13C508.19,1649.13,516.21,1632.89,520.69,1611.82z"/>
		</g>
		<g>
			<path class="st0" d="M609.41,1518.52h39.09l-32.62,153.46h92.66l-7.11,33.64H569.69L609.41,1518.52z"/>
		</g>
		<g>
			<path class="st0" d="M851.09,1518.52h44.3l-87.45,116.77l-14.85,70.32h-39.09l14.85-70.32l-39.85-116.77h46.08l21.45,81.49
				L851.09,1518.52z"/>
		</g>
		<g>
			<g>
				<defs>
					<path id="SVGID_1_" d="M1041.73,1518.52h56.23l-39.73,187.09h-36.43l26.78-126.55c0.84-3.64,2.01-8.74,3.49-15.29
						c1.48-6.56,2.56-11.61,3.24-15.17l-68.67,157.01h-37.95l-1.9-157.01c-0.68,3.55-1.67,8.61-2.98,15.17
						c-1.31,6.56-2.39,11.66-3.24,15.29l-26.78,126.55h-36.43l39.73-187.09h56.86l2.67,147.11L1041.73,1518.52z"/>
				</defs>
				<use xlink:href="#SVGID_1_"  style="overflow:visible;fill:#0066CC;"/>
				<clipPath id="SVGID_00000000914877685212712170000011128245241193931149_">
					<use xlink:href="#SVGID_1_"  style="overflow:visible;"/>
				</clipPath>
				<polygon style="clip-path:url(#SVGID_00000000914877685212712170000011128245241193931149_);fill:#0066CC;" points="
					877.36,1661.13 928.54,1705.62 877.36,1705.62 				"/>
				<polygon style="clip-path:url(#SVGID_00000000914877685212712170000011128245241193931149_);fill:#0066CC;" points="
					877.36,1658.52 931.54,1705.62 928.54,1705.62 877.36,1661.13 				"/>
				<polygon style="clip-path:url(#SVGID_00000000914877685212712170000011128245241193931149_);fill:#0066CC;" points="
					877.36,1655.9 934.55,1705.62 931.54,1705.62 877.36,1658.52 				"/>
				<polygon style="clip-path:url(#SVGID_00000000914877685212712170000011128245241193931149_);fill:#0066CC;" points="
					877.36,1653.29 937.55,1705.62 934.55,1705.62 877.36,1655.9 				"/>
				<polygon style="clip-path:url(#SVGID_00000000914877685212712170000011128245241193931149_);fill:#0066CC;" points="
					877.36,1650.68 940.56,1705.62 937.55,1705.62 877.36,1653.29 				"/>
				<polygon style="clip-path:url(#SVGID_00000000914877685212712170000011128245241193931149_);fill:#0066CC;" points="
					877.36,1648.07 943.56,1705.62 940.56,1705.62 877.36,1650.68 				"/>
				<polygon style="clip-path:url(#SVGID_00000000914877685212712170000011128245241193931149_);fill:#0066CC;" points="
					877.36,1645.45 946.57,1705.62 943.56,1705.62 877.36,1648.07 				"/>
				<polygon style="clip-path:url(#SVGID_00000000914877685212712170000011128245241193931149_);fill:#0066CC;" points="
					877.36,1642.84 949.57,1705.62 946.57,1705.62 877.36,1645.45 				"/>
				<polygon style="clip-path:url(#SVGID_00000000914877685212712170000011128245241193931149_);fill:#0066CC;" points="
					877.36,1640.23 952.58,1705.62 949.57,1705.62 877.36,1642.84 				"/>
				<polygon style="clip-path:url(#SVGID_00000000914877685212712170000011128245241193931149_);fill:#0066CC;" points="
					877.36,1637.62 955.58,1705.62 952.58,1705.62 877.36,1640.23 				"/>
				<polygon style="clip-path:url(#SVGID_00000000914877685212712170000011128245241193931149_);fill:#0066CC;" points="
					877.36,1635.01 958.59,1705.62 955.58,1705.62 877.36,1637.62 				"/>
				<polygon style="clip-path:url(#SVGID_00000000914877685212712170000011128245241193931149_);fill:#0066CC;" points="
					877.36,1632.39 961.59,1705.62 958.59,1705.62 877.36,1635.01 				"/>
				<polygon style="clip-path:url(#SVGID_00000000914877685212712170000011128245241193931149_);fill:#0066CC;" points="
					877.36,1629.78 964.6,1705.62 961.59,1705.62 877.36,1632.39 				"/>
				<polygon style="clip-path:url(#SVGID_00000000914877685212712170000011128245241193931149_);fill:#0066CC;" points="
					877.36,1627.17 967.6,1705.62 964.6,1705.62 877.36,1629.78 				"/>
				<polygon style="clip-path:url(#SVGID_00000000914877685212712170000011128245241193931149_);fill:#0066CC;" points="
					877.36,1624.56 970.61,1705.62 967.6,1705.62 877.36,1627.17 				"/>
				<polygon style="clip-path:url(#SVGID_00000000914877685212712170000011128245241193931149_);fill:#0066CC;" points="
					877.36,1621.94 973.61,1705.62 970.61,1705.62 877.36,1624.56 				"/>
				<polygon style="clip-path:url(#SVGID_00000000914877685212712170000011128245241193931149_);fill:#0066CC;" points="
					877.36,1619.33 976.62,1705.62 973.61,1705.62 877.36,1621.94 				"/>
				<polygon style="clip-path:url(#SVGID_00000000914877685212712170000011128245241193931149_);fill:#0066CC;" points="
					877.36,1616.72 979.62,1705.62 976.62,1705.62 877.36,1619.33 				"/>
				<polygon style="clip-path:url(#SVGID_00000000914877685212712170000011128245241193931149_);fill:#0066CC;" points="
					877.36,1614.11 982.63,1705.62 979.62,1705.62 877.36,1616.72 				"/>
				<polygon style="clip-path:url(#SVGID_00000000914877685212712170000011128245241193931149_);fill:#0066CC;" points="
					877.36,1611.49 985.63,1705.62 982.63,1705.62 877.36,1614.11 				"/>
				<polygon style="clip-path:url(#SVGID_00000000914877685212712170000011128245241193931149_);fill:#0066CC;" points="
					877.36,1608.88 988.64,1705.62 985.63,1705.62 877.36,1611.49 				"/>
				<polygon style="clip-path:url(#SVGID_00000000914877685212712170000011128245241193931149_);fill:#0066CC;" points="
					877.36,1606.27 991.64,1705.62 988.64,1705.62 877.36,1608.88 				"/>
				<polygon style="clip-path:url(#SVGID_00000000914877685212712170000011128245241193931149_);fill:#0066CC;" points="
					877.36,1603.66 994.65,1705.62 991.64,1705.62 877.36,1606.27 				"/>
				<polygon style="clip-path:url(#SVGID_00000000914877685212712170000011128245241193931149_);fill:#0066CC;" points="
					877.36,1601.05 997.65,1705.62 994.65,1705.62 877.36,1603.66 				"/>
				<polygon style="clip-path:url(#SVGID_00000000914877685212712170000011128245241193931149_);fill:#0066CC;" points="
					877.36,1598.43 1000.66,1705.62 997.65,1705.62 877.36,1601.05 				"/>
				<polygon style="clip-path:url(#SVGID_00000000914877685212712170000011128245241193931149_);fill:#0066CC;" points="
					877.36,1595.82 1003.66,1705.62 1000.66,1705.62 877.36,1598.43 				"/>
				<polygon style="clip-path:url(#SVGID_00000000914877685212712170000011128245241193931149_);fill:#0066CC;" points="
					877.36,1593.21 1006.67,1705.62 1003.66,1705.62 877.36,1595.82 				"/>
				<polygon style="clip-path:url(#SVGID_00000000914877685212712170000011128245241193931149_);fill:#0066CC;" points="
					877.36,1590.6 1009.67,1705.62 1006.67,1705.62 877.36,1593.21 				"/>
				<polygon style="clip-path:url(#SVGID_00000000914877685212712170000011128245241193931149_);fill:#0066CC;" points="
					877.36,1587.98 1012.68,1705.62 1009.67,1705.62 877.36,1590.6 				"/>
				<polygon style="clip-path:url(#SVGID_00000000914877685212712170000011128245241193931149_);fill:#0066CC;" points="
					877.36,1585.37 1015.68,1705.62 1012.68,1705.62 877.36,1587.98 				"/>
				<polygon style="clip-path:url(#SVGID_00000000914877685212712170000011128245241193931149_);fill:#0066CC;" points="
					877.36,1582.76 1018.69,1705.62 1015.68,1705.62 877.36,1585.37 				"/>
				<polygon style="clip-path:url(#SVGID_00000000914877685212712170000011128245241193931149_);fill:#0066CC;" points="
					877.36,1580.15 1021.69,1705.62 1018.69,1705.62 877.36,1582.76 				"/>
				<polygon style="clip-path:url(#SVGID_00000000914877685212712170000011128245241193931149_);fill:#0066CC;" points="
					877.36,1577.54 1024.7,1705.62 1021.69,1705.62 877.36,1580.15 				"/>
				<polygon style="clip-path:url(#SVGID_00000000914877685212712170000011128245241193931149_);fill:#0066CC;" points="
					877.36,1574.92 1027.71,1705.62 1024.7,1705.62 877.36,1577.54 				"/>
				<polygon style="clip-path:url(#SVGID_00000000914877685212712170000011128245241193931149_);fill:#0066CC;" points="
					877.36,1572.31 1030.71,1705.62 1027.71,1705.62 877.36,1574.92 				"/>
				<polygon style="clip-path:url(#SVGID_00000000914877685212712170000011128245241193931149_);fill:#0066CC;" points="
					877.36,1569.7 1033.72,1705.62 1030.71,1705.62 877.36,1572.31 				"/>
				<polygon style="clip-path:url(#SVGID_00000000914877685212712170000011128245241193931149_);fill:#0066CC;" points="
					877.36,1567.09 1036.72,1705.62 1033.72,1705.62 877.36,1569.7 				"/>
				<polygon style="clip-path:url(#SVGID_00000000914877685212712170000011128245241193931149_);fill:#0066CC;" points="
					877.36,1564.47 1039.73,1705.62 1036.72,1705.62 877.36,1567.09 				"/>
				<polygon style="clip-path:url(#SVGID_00000000914877685212712170000011128245241193931149_);fill:#0066CC;" points="
					877.36,1561.86 1042.73,1705.62 1039.73,1705.62 877.36,1564.47 				"/>
				<polygon style="clip-path:url(#SVGID_00000000914877685212712170000011128245241193931149_);fill:#0066CC;" points="
					877.36,1559.35 877.41,1559.29 1045.74,1705.62 1042.73,1705.62 877.36,1561.86 				"/>
				<polygon style="clip-path:url(#SVGID_00000000914877685212712170000011128245241193931149_);fill:#0066CC;" points="
					877.41,1559.29 878.7,1557.8 1048.74,1705.62 1045.74,1705.62 				"/>
				<polygon style="clip-path:url(#SVGID_00000000914877685212712170000011128245241193931149_);fill:#0066CC;" points="
					878.7,1557.8 879.99,1556.32 1051.75,1705.62 1048.74,1705.62 				"/>
				<polygon style="clip-path:url(#SVGID_00000000914877685212712170000011128245241193931149_);fill:#0066CC;" points="
					879.99,1556.32 881.29,1554.83 1054.75,1705.62 1051.75,1705.62 				"/>
				<polygon style="clip-path:url(#SVGID_00000000914877685212712170000011128245241193931149_);fill:#0066CC;" points="
					881.29,1554.83 882.58,1553.34 1057.76,1705.62 1054.75,1705.62 				"/>
				<polygon style="clip-path:url(#SVGID_00000000914877685212712170000011128245241193931149_);fill:#0066CC;" points="
					882.58,1553.34 883.87,1551.85 1060.76,1705.62 1057.76,1705.62 				"/>
				<polygon style="clip-path:url(#SVGID_00000000914877685212712170000011128245241193931149_);fill:#0066CC;" points="
					883.87,1551.85 885.17,1550.36 1063.03,1704.98 1062.48,1705.62 1060.76,1705.62 				"/>
				
					<rect x="973.76" y="1509.09" transform="matrix(0.6561 -0.7547 0.7547 0.6561 -892.6019 1295.2174)" style="clip-path:url(#SVGID_00000000914877685212712170000011128245241193931149_);fill:#0066CC;" width="1.97" height="235.67"/>
				
					<rect x="975.05" y="1507.6" transform="matrix(0.6561 -0.7547 0.7547 0.6561 -891.0341 1295.6818)" style="clip-path:url(#SVGID_00000000914877685212712170000011128245241193931149_);fill:#0066CC;" width="1.97" height="235.67"/>
				
					<rect x="976.35" y="1506.12" transform="matrix(0.6561 -0.7547 0.7547 0.6561 -889.4662 1296.1462)" style="clip-path:url(#SVGID_00000000914877685212712170000011128245241193931149_);fill:#0066CC;" width="1.97" height="235.67"/>
				
					<rect x="977.64" y="1504.63" transform="matrix(0.6561 -0.7547 0.7547 0.6561 -887.8984 1296.61)" style="clip-path:url(#SVGID_00000000914877685212712170000011128245241193931149_);fill:#0066CC;" width="1.97" height="235.67"/>
				
					<rect x="978.93" y="1503.14" transform="matrix(0.6561 -0.7547 0.7547 0.6561 -886.3307 1297.075)" style="clip-path:url(#SVGID_00000000914877685212712170000011128245241193931149_);fill:#0066CC;" width="1.97" height="235.67"/>
				
					<rect x="980.23" y="1501.65" transform="matrix(0.6561 -0.7547 0.7547 0.6561 -884.7628 1297.5388)" style="clip-path:url(#SVGID_00000000914877685212712170000011128245241193931149_);fill:#0066CC;" width="1.97" height="235.67"/>
				
					<rect x="981.52" y="1500.16" transform="matrix(0.6561 -0.7547 0.7547 0.6561 -883.1951 1298.0038)" style="clip-path:url(#SVGID_00000000914877685212712170000011128245241193931149_);fill:#0066CC;" width="1.97" height="235.67"/>
				
					<rect x="982.81" y="1498.68" transform="matrix(0.6561 -0.7547 0.7547 0.6561 -881.6272 1298.4677)" style="clip-path:url(#SVGID_00000000914877685212712170000011128245241193931149_);fill:#0066CC;" width="1.97" height="235.67"/>
				
					<rect x="984.11" y="1497.19" transform="matrix(0.6561 -0.7547 0.7547 0.6561 -880.0594 1298.9326)" style="clip-path:url(#SVGID_00000000914877685212712170000011128245241193931149_);fill:#0066CC;" width="1.97" height="235.67"/>
				
					<rect x="985.4" y="1495.7" transform="matrix(0.6561 -0.7547 0.7547 0.6561 -878.4916 1299.3965)" style="clip-path:url(#SVGID_00000000914877685212712170000011128245241193931149_);fill:#0066CC;" width="1.97" height="235.67"/>
				
					<rect x="986.69" y="1494.21" transform="matrix(0.6561 -0.7547 0.7547 0.6561 -876.9239 1299.8615)" style="clip-path:url(#SVGID_00000000914877685212712170000011128245241193931149_);fill:#0066CC;" width="1.97" height="235.67"/>
				
					<rect x="987.99" y="1492.72" transform="matrix(0.6561 -0.7547 0.7547 0.6561 -875.3561 1300.3257)" style="clip-path:url(#SVGID_00000000914877685212712170000011128245241193931149_);fill:#0066CC;" width="1.97" height="235.67"/>
				
					<rect x="989.28" y="1491.24" transform="matrix(0.6561 -0.7547 0.7547 0.6561 -873.7883 1300.7902)" style="clip-path:url(#SVGID_00000000914877685212712170000011128245241193931149_);fill:#0066CC;" width="1.97" height="235.67"/>
				
					<rect x="990.58" y="1489.75" transform="matrix(0.6561 -0.7547 0.7547 0.6561 -872.2204 1301.254)" style="clip-path:url(#SVGID_00000000914877685212712170000011128245241193931149_);fill:#0066CC;" width="1.97" height="235.67"/>
				
					<rect x="991.87" y="1488.26" transform="matrix(0.6561 -0.7547 0.7547 0.6561 -870.6527 1301.719)" style="clip-path:url(#SVGID_00000000914877685212712170000011128245241193931149_);fill:#0066CC;" width="1.97" height="235.67"/>
				
					<rect x="993.16" y="1486.77" transform="matrix(0.6561 -0.7547 0.7547 0.6561 -869.0848 1302.1829)" style="clip-path:url(#SVGID_00000000914877685212712170000011128245241193931149_);fill:#0066CC;" width="1.97" height="235.67"/>
				
					<rect x="994.46" y="1485.28" transform="matrix(0.6561 -0.7547 0.7547 0.6561 -867.5171 1302.6478)" style="clip-path:url(#SVGID_00000000914877685212712170000011128245241193931149_);fill:#0066CC;" width="1.97" height="235.67"/>
				
					<rect x="995.75" y="1483.8" transform="matrix(0.6561 -0.7547 0.7547 0.6561 -865.9492 1303.1117)" style="clip-path:url(#SVGID_00000000914877685212712170000011128245241193931149_);fill:#0066CC;" width="1.97" height="235.67"/>
				
					<rect x="997.04" y="1482.31" transform="matrix(0.6561 -0.7547 0.7547 0.6561 -864.3815 1303.5767)" style="clip-path:url(#SVGID_00000000914877685212712170000011128245241193931149_);fill:#0066CC;" width="1.97" height="235.67"/>
				
					<rect x="998.34" y="1480.82" transform="matrix(0.6561 -0.7547 0.7547 0.6561 -862.8136 1304.0405)" style="clip-path:url(#SVGID_00000000914877685212712170000011128245241193931149_);fill:#0066CC;" width="1.97" height="235.67"/>
				
					<rect x="999.63" y="1479.33" transform="matrix(0.6561 -0.7547 0.7547 0.6561 -861.2459 1304.5054)" style="clip-path:url(#SVGID_00000000914877685212712170000011128245241193931149_);fill:#0066CC;" width="1.97" height="235.67"/>
				<polygon style="clip-path:url(#SVGID_00000000914877685212712170000011128245241193931149_);fill:#0066CC;" points="
					912.33,1519.12 912.85,1518.52 914.65,1518.52 1091.49,1672.24 1090.19,1673.73 				"/>
				<polygon style="clip-path:url(#SVGID_00000000914877685212712170000011128245241193931149_);fill:#0066CC;" points="
					917.66,1518.52 1092.78,1670.76 1091.49,1672.24 914.65,1518.52 				"/>
				<polygon style="clip-path:url(#SVGID_00000000914877685212712170000011128245241193931149_);fill:#0066CC;" points="
					920.66,1518.52 1094.07,1669.27 1092.78,1670.76 917.66,1518.52 				"/>
				<polygon style="clip-path:url(#SVGID_00000000914877685212712170000011128245241193931149_);fill:#0066CC;" points="
					923.67,1518.52 1095.37,1667.78 1094.07,1669.27 920.66,1518.52 				"/>
				<polygon style="clip-path:url(#SVGID_00000000914877685212712170000011128245241193931149_);fill:#0066CC;" points="
					926.67,1518.52 1096.66,1666.29 1095.37,1667.78 923.67,1518.52 				"/>
				<polygon style="clip-path:url(#SVGID_00000000914877685212712170000011128245241193931149_);fill:#0066CC;" points="
					929.68,1518.52 1097.95,1664.8 1096.66,1666.29 926.67,1518.52 				"/>
				<polygon style="clip-path:url(#SVGID_00000000914877685212712170000011128245241193931149_);fill:#0066CC;" points="
					932.68,1518.52 1097.96,1662.2 1097.96,1664.79 1097.95,1664.8 929.68,1518.52 				"/>
				<polygon style="clip-path:url(#SVGID_00000000914877685212712170000011128245241193931149_);fill:#0066CC;" points="
					935.69,1518.52 1097.96,1659.59 1097.96,1662.2 932.68,1518.52 				"/>
				<polygon style="clip-path:url(#SVGID_00000000914877685212712170000011128245241193931149_);fill:#0066CC;" points="
					938.69,1518.52 1097.96,1656.97 1097.96,1659.59 935.69,1518.52 				"/>
				<polygon style="clip-path:url(#SVGID_00000000914877685212712170000011128245241193931149_);fill:#0066CC;" points="
					941.7,1518.52 1097.96,1654.36 1097.96,1656.97 938.69,1518.52 				"/>
				<polygon style="clip-path:url(#SVGID_00000000914877685212712170000011128245241193931149_);fill:#0066CC;" points="
					944.7,1518.52 1097.96,1651.75 1097.96,1654.36 941.7,1518.52 				"/>
				<polygon style="clip-path:url(#SVGID_00000000914877685212712170000011128245241193931149_);fill:#0066CC;" points="
					947.71,1518.52 1097.96,1649.14 1097.96,1651.75 944.7,1518.52 				"/>
				<polygon style="clip-path:url(#SVGID_00000000914877685212712170000011128245241193931149_);fill:#0066CC;" points="
					950.71,1518.52 1097.96,1646.53 1097.96,1649.14 947.71,1518.52 				"/>
				<polygon style="clip-path:url(#SVGID_00000000914877685212712170000011128245241193931149_);fill:#0066CC;" points="
					953.72,1518.52 1097.96,1643.91 1097.96,1646.53 950.71,1518.52 				"/>
				<polygon style="clip-path:url(#SVGID_00000000914877685212712170000011128245241193931149_);fill:#0066CC;" points="
					956.72,1518.52 1097.96,1641.3 1097.96,1643.91 953.72,1518.52 				"/>
				<polygon style="clip-path:url(#SVGID_00000000914877685212712170000011128245241193931149_);fill:#0066CC;" points="
					959.73,1518.52 1097.96,1638.69 1097.96,1641.3 956.72,1518.52 				"/>
				<polygon style="clip-path:url(#SVGID_00000000914877685212712170000011128245241193931149_);fill:#0066CC;" points="
					962.73,1518.52 1097.96,1636.08 1097.96,1638.69 959.73,1518.52 				"/>
				<polygon style="clip-path:url(#SVGID_00000000914877685212712170000011128245241193931149_);fill:#0066CC;" points="
					965.74,1518.52 1097.96,1633.46 1097.96,1636.08 962.73,1518.52 				"/>
				<polygon style="clip-path:url(#SVGID_00000000914877685212712170000011128245241193931149_);fill:#0066CC;" points="
					968.74,1518.52 1097.96,1630.85 1097.96,1633.46 965.74,1518.52 				"/>
				<polygon style="clip-path:url(#SVGID_00000000914877685212712170000011128245241193931149_);fill:#0066CC;" points="
					971.75,1518.52 1097.96,1628.24 1097.96,1630.85 968.74,1518.52 				"/>
				<polygon style="clip-path:url(#SVGID_00000000914877685212712170000011128245241193931149_);fill:#0066CC;" points="
					974.75,1518.52 1097.96,1625.63 1097.96,1628.24 971.75,1518.52 				"/>
				<polygon style="clip-path:url(#SVGID_00000000914877685212712170000011128245241193931149_);fill:#0066CC;" points="
					977.76,1518.52 1097.96,1623.01 1097.96,1625.63 974.75,1518.52 				"/>
				<polygon style="clip-path:url(#SVGID_00000000914877685212712170000011128245241193931149_);fill:#0066CC;" points="
					980.76,1518.52 1097.96,1620.4 1097.96,1623.01 977.76,1518.52 				"/>
				<polygon style="clip-path:url(#SVGID_00000000914877685212712170000011128245241193931149_);fill:#0066CC;" points="
					983.77,1518.52 1097.96,1617.79 1097.96,1620.4 980.76,1518.52 				"/>
				<polygon style="clip-path:url(#SVGID_00000000914877685212712170000011128245241193931149_);fill:#0066CC;" points="
					986.77,1518.52 1097.96,1615.18 1097.96,1617.79 983.77,1518.52 				"/>
				<polygon style="clip-path:url(#SVGID_00000000914877685212712170000011128245241193931149_);fill:#0066CC;" points="
					989.78,1518.52 1097.96,1612.57 1097.96,1615.18 986.77,1518.52 				"/>
				<polygon style="clip-path:url(#SVGID_00000000914877685212712170000011128245241193931149_);fill:#0066CC;" points="
					992.78,1518.52 1097.96,1609.95 1097.96,1612.57 989.78,1518.52 				"/>
				<polygon style="clip-path:url(#SVGID_00000000914877685212712170000011128245241193931149_);fill:#0066CC;" points="
					995.79,1518.52 1097.96,1607.34 1097.96,1609.95 992.78,1518.52 				"/>
				<polygon style="clip-path:url(#SVGID_00000000914877685212712170000011128245241193931149_);fill:#0066CC;" points="
					998.79,1518.52 1097.96,1604.73 1097.96,1607.34 995.79,1518.52 				"/>
				<polygon style="clip-path:url(#SVGID_00000000914877685212712170000011128245241193931149_);fill:#0066CC;" points="
					1001.8,1518.52 1097.96,1602.12 1097.96,1604.73 998.79,1518.52 				"/>
				<polygon style="clip-path:url(#SVGID_00000000914877685212712170000011128245241193931149_);fill:#0066CC;" points="
					1004.8,1518.52 1097.96,1599.5 1097.96,1602.12 1001.8,1518.52 				"/>
				<polygon style="clip-path:url(#SVGID_00000000914877685212712170000011128245241193931149_);fill:#0066CC;" points="
					1007.81,1518.52 1097.96,1596.89 1097.96,1599.5 1004.8,1518.52 				"/>
				<polygon style="clip-path:url(#SVGID_00000000914877685212712170000011128245241193931149_);fill:#0066CC;" points="
					1010.81,1518.52 1097.96,1594.28 1097.96,1596.89 1007.81,1518.52 				"/>
				<polygon style="clip-path:url(#SVGID_00000000914877685212712170000011128245241193931149_);fill:#0066CC;" points="
					1013.82,1518.52 1097.96,1591.67 1097.96,1594.28 1010.81,1518.52 				"/>
				<polygon style="clip-path:url(#SVGID_00000000914877685212712170000011128245241193931149_);fill:#0066CC;" points="
					1016.82,1518.52 1097.96,1589.06 1097.96,1591.67 1013.82,1518.52 				"/>
				<polygon style="clip-path:url(#SVGID_00000000914877685212712170000011128245241193931149_);fill:#0066CC;" points="
					1019.83,1518.52 1097.96,1586.44 1097.96,1589.06 1016.82,1518.52 				"/>
				<polygon style="clip-path:url(#SVGID_00000000914877685212712170000011128245241193931149_);fill:#0066CC;" points="
					1022.84,1518.52 1097.96,1583.83 1097.96,1586.44 1019.83,1518.52 				"/>
				<polygon style="clip-path:url(#SVGID_00000000914877685212712170000011128245241193931149_);fill:#0066CC;" points="
					1025.84,1518.52 1097.96,1581.22 1097.96,1583.83 1022.84,1518.52 				"/>
				<polygon style="clip-path:url(#SVGID_00000000914877685212712170000011128245241193931149_);fill:#0066CC;" points="
					1028.85,1518.52 1097.96,1578.61 1097.96,1581.22 1025.84,1518.52 				"/>
				<polygon style="clip-path:url(#SVGID_00000000914877685212712170000011128245241193931149_);fill:#0066CC;" points="
					1031.85,1518.52 1097.96,1575.99 1097.96,1578.61 1028.85,1518.52 				"/>
				<polygon style="clip-path:url(#SVGID_00000000914877685212712170000011128245241193931149_);fill:#0066CC;" points="
					1034.86,1518.52 1097.96,1573.38 1097.96,1575.99 1031.85,1518.52 				"/>
				<polygon style="clip-path:url(#SVGID_00000000914877685212712170000011128245241193931149_);fill:#0066CC;" points="
					1037.86,1518.52 1097.96,1570.77 1097.96,1573.38 1034.86,1518.52 				"/>
				<polygon style="clip-path:url(#SVGID_00000000914877685212712170000011128245241193931149_);fill:#0066CC;" points="
					1040.87,1518.52 1097.96,1568.16 1097.96,1570.77 1037.86,1518.52 				"/>
				<polygon style="clip-path:url(#SVGID_00000000914877685212712170000011128245241193931149_);fill:#0066CC;" points="
					1043.87,1518.52 1097.96,1565.55 1097.96,1568.16 1040.87,1518.52 				"/>
				<polygon style="clip-path:url(#SVGID_00000000914877685212712170000011128245241193931149_);fill:#0066CC;" points="
					1046.88,1518.52 1097.96,1562.93 1097.96,1565.55 1043.87,1518.52 				"/>
				<polygon style="clip-path:url(#SVGID_00000000914877685212712170000011128245241193931149_);fill:#0066CC;" points="
					1049.88,1518.52 1097.96,1560.32 1097.96,1562.93 1046.88,1518.52 				"/>
				<polygon style="clip-path:url(#SVGID_00000000914877685212712170000011128245241193931149_);fill:#0066CC;" points="
					1052.89,1518.52 1097.96,1557.71 1097.96,1560.32 1049.88,1518.52 				"/>
				<polygon style="clip-path:url(#SVGID_00000000914877685212712170000011128245241193931149_);fill:#0066CC;" points="
					1055.89,1518.52 1097.96,1555.1 1097.96,1557.71 1052.89,1518.52 				"/>
				<polygon style="clip-path:url(#SVGID_00000000914877685212712170000011128245241193931149_);fill:#0066CC;" points="
					1058.9,1518.52 1097.96,1552.48 1097.96,1555.1 1055.89,1518.52 				"/>
				<polygon style="clip-path:url(#SVGID_00000000914877685212712170000011128245241193931149_);fill:#0066CC;" points="
					1061.9,1518.52 1097.96,1549.87 1097.96,1552.48 1058.9,1518.52 				"/>
				<polygon style="clip-path:url(#SVGID_00000000914877685212712170000011128245241193931149_);fill:#0066CC;" points="
					1064.91,1518.52 1097.96,1547.26 1097.96,1549.87 1061.9,1518.52 				"/>
				<polygon style="clip-path:url(#SVGID_00000000914877685212712170000011128245241193931149_);fill:#0066CC;" points="
					1067.91,1518.52 1097.96,1544.65 1097.96,1547.26 1064.91,1518.52 				"/>
				<polygon style="clip-path:url(#SVGID_00000000914877685212712170000011128245241193931149_);fill:#0066CC;" points="
					1070.92,1518.52 1097.96,1542.03 1097.96,1544.65 1067.91,1518.52 				"/>
				<polygon style="clip-path:url(#SVGID_00000000914877685212712170000011128245241193931149_);fill:#0066CC;" points="
					1073.92,1518.52 1097.96,1539.42 1097.96,1542.03 1070.92,1518.52 				"/>
				<polygon style="clip-path:url(#SVGID_00000000914877685212712170000011128245241193931149_);fill:#0066CC;" points="
					1076.93,1518.52 1097.96,1536.81 1097.96,1539.42 1073.92,1518.52 				"/>
				<polygon style="clip-path:url(#SVGID_00000000914877685212712170000011128245241193931149_);fill:#0066CC;" points="
					1079.93,1518.52 1097.96,1534.2 1097.96,1536.81 1076.93,1518.52 				"/>
				<polygon style="clip-path:url(#SVGID_00000000914877685212712170000011128245241193931149_);fill:#0066CC;" points="
					1082.94,1518.52 1097.96,1531.59 1097.96,1534.2 1079.93,1518.52 				"/>
				<polygon style="clip-path:url(#SVGID_00000000914877685212712170000011128245241193931149_);fill:#0066CC;" points="
					1085.94,1518.52 1097.96,1528.97 1097.96,1531.59 1082.94,1518.52 				"/>
				<polygon style="clip-path:url(#SVGID_00000000914877685212712170000011128245241193931149_);fill:#0066CC;" points="
					1088.95,1518.52 1097.96,1526.36 1097.96,1528.97 1085.94,1518.52 				"/>
				<polygon style="clip-path:url(#SVGID_00000000914877685212712170000011128245241193931149_);fill:#0066CC;" points="
					1091.95,1518.52 1097.96,1523.75 1097.96,1526.36 1088.95,1518.52 				"/>
				<polygon style="clip-path:url(#SVGID_00000000914877685212712170000011128245241193931149_);fill:#0066CC;" points="
					1094.96,1518.52 1097.96,1521.14 1097.96,1523.75 1091.95,1518.52 				"/>
				<polygon style="clip-path:url(#SVGID_00000000914877685212712170000011128245241193931149_);fill:#0066CC;" points="
					1097.96,1518.52 1097.96,1521.14 1094.96,1518.52 				"/>
				<path style="clip-path:url(#SVGID_00000000914877685212712170000011128245241193931149_);fill:#0066CC;" d="M1097.96,1518.52
					L1097.96,1518.52z"/>
			</g>
		</g>
		<g>
			<path class="st0" d="M1188.21,1638.34h-39.73l-14.22,67.27h-38.84l39.73-187.09h81.49c18.79,0,32.73,4.82,41.82,14.47
				c9.1,9.65,11.53,24.58,7.3,44.8c-4.74,22.09-13.67,37.7-26.78,46.84C1225.86,1633.78,1208.94,1638.34,1188.21,1638.34z
				 M1203.44,1551.02h-36.43l-11.68,55.09h36.43c9.22,0,16.88-2.24,22.97-6.73c6.09-4.48,10.15-11.59,12.19-21.32
				c2.11-9.73,1.04-16.67-3.24-20.82C1219.41,1553.09,1212.66,1551.02,1203.44,1551.02z"/>
		</g>
		<g>
			<path class="st0" d="M1307.65,1518.52h39.73l-24.5,115c-2.71,12.86-3.17,22.26-1.4,28.18c2.54,10.49,11.76,15.74,27.67,15.74
				c15.82,0,27.2-5.25,34.14-15.74c4.32-5.92,7.83-15.31,10.53-28.18l24.5-115h39.73l-24.5,115c-4.23,19.89-10.62,35.37-19.17,46.46
				c-15.82,20.31-39.94,30.46-72.35,30.46c-32.41,0-52.25-10.15-59.53-30.46c-3.81-11.08-3.6-26.57,0.64-46.46L1307.65,1518.52z"/>
		</g>
		<g>
			<path class="st0" d="M1496.13,1647.86c-0.59,8.55,0.38,14.94,2.92,19.17c4.74,7.7,14.81,11.55,30.21,11.55
				c9.22,0,16.92-1.02,23.1-3.05c11.76-3.89,18.74-11.13,20.94-21.71c1.35-6.18-0.34-10.96-5.08-14.34
				c-4.65-3.3-12.52-6.22-23.61-8.76l-18.91-4.44c-18.53-4.4-30.97-9.18-37.32-14.34c-10.75-8.63-14.17-22.13-10.28-40.49
				c3.55-16.75,12.61-30.67,27.16-41.76c14.55-11.08,33.64-16.63,57.24-16.63c19.72,0,35.41,5.23,47.09,15.68
				c11.68,10.45,15.74,25.62,12.19,45.5h-37.57c1.78-11.25-1.4-19.25-9.52-23.99c-5.42-3.13-12.65-4.7-21.7-4.7
				c-10.07,0-18.55,2.03-25.45,6.09c-6.9,4.06-11.11,9.73-12.63,17.01c-1.44,6.69,0.46,11.68,5.71,14.98
				c3.3,2.2,10.87,4.78,22.72,7.74l30.59,7.74c13.37,3.39,23.06,7.91,29.07,13.58c9.31,8.8,12.19,21.54,8.63,38.21
				c-3.64,17.09-13.2,31.29-28.69,42.58c-15.49,11.3-35.16,16.94-59.02,16.94c-24.37,0-42.35-5.56-53.94-16.69
				c-11.59-11.13-15.32-26.42-11.17-45.88H1496.13z"/>
		</g>
	</g>
	<g>
		<path class="st0" d="M1701.7,754.29c-38.36-90.69-93.27-172.13-163.19-242.06c-69.93-69.93-151.37-124.84-242.06-163.19
			c-93.91-39.72-193.65-59.86-296.44-59.86s-202.53,20.14-296.44,59.86C612.87,387.4,531.43,442.3,461.5,512.23
			c-69.93,69.93-124.84,151.37-163.19,242.06c-39.72,93.91-59.86,193.65-59.86,296.44c0,102.8,20.14,202.53,59.86,296.44
			c19.28,45.58,42.74,88.82,70.19,129.44h77.82c-36.09-46.82-66.4-98.31-89.82-153.41l305.9-420.64l53.77,77.25l-182.57,251.06
			h77.57l168.55-231.78l229.04-314.79l229.56,329.57l0.02,0.03l25.11,36.04l0.1-0.13l127.06,181.06h76.39v0.83l0.56-0.39
			l-165.01-235.13l62.78-86.33l281.76,404.8c-23.88,58.34-55.45,112.74-93.41,161.97h77.84c27.45-40.62,50.91-83.86,70.19-129.44
			c39.72-93.91,59.86-193.65,59.86-296.44C1761.56,947.94,1741.42,848.2,1701.7,754.29z M1672.43,1241.24l-305.98-439.6
			l-101.9,140.12l-254.67-365.63L755.23,926.12l-91.71-131.76l-332.8,457.62c-19.21-63.75-29.54-131.31-29.54-201.24
			c0-385.33,313.49-698.82,698.82-698.82s698.82,313.49,698.82,698.82C1698.82,1116.75,1689.62,1180.66,1672.43,1241.24z"/>
	</g>
</g>
<g>
	<g>
		<g>
			<path class="st2" d="M3248.63-423.08c-17.18,14.55-39.14,21.83-65.88,21.83c-26.74,0-45.65-7.28-56.74-21.83
				c-15.15-17.85-19.12-43.58-11.93-77.17c7.28-34.27,22.21-59.99,44.81-77.17c17.18-14.55,39.14-21.83,65.88-21.83
				c26.74,0,45.65,7.28,56.74,21.83c15.23,17.18,19.21,42.9,11.93,77.17C3286.25-466.65,3271.31-440.93,3248.63-423.08z
				 M3254.35-500.25c4.4-20.98,3.28-37.21-3.36-48.68c-6.64-11.47-17.71-17.2-33.19-17.2c-15.49,0-29.05,5.71-40.68,17.13
				c-11.64,11.42-19.7,27.67-24.18,48.74c-4.49,21.07-3.34,37.32,3.43,48.74c6.77,11.42,17.9,17.13,33.38,17.13
				c15.49,0,29-5.71,40.55-17.13C3241.84-462.93,3249.86-479.18,3254.35-500.25z"/>
		</g>
		<g>
			<path class="st2" d="M3343.07-593.54h39.09l-32.62,153.46h92.66l-7.11,33.64h-131.75L3343.07-593.54z"/>
		</g>
		<g>
			<path class="st2" d="M3584.74-593.54h44.3l-87.45,116.77l-14.85,70.32h-39.09l14.85-70.32l-39.85-116.77h46.07l21.45,81.49
				L3584.74-593.54z"/>
		</g>
		<g>
			<g>
				<defs>
					<path id="SVGID_00000127012001417210968900000011677472461162897586_" d="M3775.39-593.54h56.23l-39.73,187.09h-36.43
						L3782.24-533c0.84-3.64,2.01-8.74,3.49-15.29c1.48-6.56,2.56-11.61,3.24-15.17l-68.67,157.01h-37.95l-1.9-157.01
						c-0.68,3.55-1.67,8.61-2.98,15.17c-1.31,6.56-2.39,11.66-3.24,15.29l-26.78,126.55h-36.43l39.73-187.09h56.86l2.67,147.11
						L3775.39-593.54z"/>
				</defs>
				<use xlink:href="#SVGID_00000127012001417210968900000011677472461162897586_"  style="overflow:visible;fill:#FFFFFF;"/>
				<clipPath id="SVGID_00000022557315100698796100000011508825366435310240_">
					<use xlink:href="#SVGID_00000127012001417210968900000011677472461162897586_"  style="overflow:visible;"/>
				</clipPath>
				<polygon style="clip-path:url(#SVGID_00000022557315100698796100000011508825366435310240_);fill:#FFFFFF;" points="
					3611.01,-450.94 3662.19,-406.45 3611.01,-406.45 				"/>
				<polygon style="clip-path:url(#SVGID_00000022557315100698796100000011508825366435310240_);fill:#FFFFFF;" points="
					3611.01,-453.55 3665.2,-406.45 3662.19,-406.45 3611.01,-450.94 				"/>
				<polygon style="clip-path:url(#SVGID_00000022557315100698796100000011508825366435310240_);fill:#FFFFFF;" points="
					3611.01,-456.16 3668.2,-406.45 3665.2,-406.45 3611.01,-453.55 				"/>
				<polygon style="clip-path:url(#SVGID_00000022557315100698796100000011508825366435310240_);fill:#FFFFFF;" points="
					3611.01,-458.77 3671.21,-406.45 3668.2,-406.45 3611.01,-456.16 				"/>
				<polygon style="clip-path:url(#SVGID_00000022557315100698796100000011508825366435310240_);fill:#FFFFFF;" points="
					3611.01,-461.39 3674.21,-406.45 3671.21,-406.45 3611.01,-458.77 				"/>
				<polygon style="clip-path:url(#SVGID_00000022557315100698796100000011508825366435310240_);fill:#FFFFFF;" points="
					3611.01,-464 3677.22,-406.45 3674.21,-406.45 3611.01,-461.39 				"/>
				<polygon style="clip-path:url(#SVGID_00000022557315100698796100000011508825366435310240_);fill:#FFFFFF;" points="
					3611.01,-466.61 3680.22,-406.45 3677.22,-406.45 3611.01,-464 				"/>
				<polygon style="clip-path:url(#SVGID_00000022557315100698796100000011508825366435310240_);fill:#FFFFFF;" points="
					3611.01,-469.22 3683.23,-406.45 3680.22,-406.45 3611.01,-466.61 				"/>
				<polygon style="clip-path:url(#SVGID_00000022557315100698796100000011508825366435310240_);fill:#FFFFFF;" points="
					3611.01,-471.83 3686.23,-406.45 3683.23,-406.45 3611.01,-469.22 				"/>
				<polygon style="clip-path:url(#SVGID_00000022557315100698796100000011508825366435310240_);fill:#FFFFFF;" points="
					3611.01,-474.45 3689.24,-406.45 3686.23,-406.45 3611.01,-471.83 				"/>
				<polygon style="clip-path:url(#SVGID_00000022557315100698796100000011508825366435310240_);fill:#FFFFFF;" points="
					3611.01,-477.06 3692.24,-406.45 3689.24,-406.45 3611.01,-474.45 				"/>
				<polygon style="clip-path:url(#SVGID_00000022557315100698796100000011508825366435310240_);fill:#FFFFFF;" points="
					3611.01,-479.67 3695.25,-406.45 3692.24,-406.45 3611.01,-477.06 				"/>
				<polygon style="clip-path:url(#SVGID_00000022557315100698796100000011508825366435310240_);fill:#FFFFFF;" points="
					3611.01,-482.28 3698.25,-406.45 3695.25,-406.45 3611.01,-479.67 				"/>
				<polygon style="clip-path:url(#SVGID_00000022557315100698796100000011508825366435310240_);fill:#FFFFFF;" points="
					3611.01,-484.9 3701.26,-406.45 3698.25,-406.45 3611.01,-482.28 				"/>
				<polygon style="clip-path:url(#SVGID_00000022557315100698796100000011508825366435310240_);fill:#FFFFFF;" points="
					3611.01,-487.51 3704.26,-406.45 3701.26,-406.45 3611.01,-484.9 				"/>
				<polygon style="clip-path:url(#SVGID_00000022557315100698796100000011508825366435310240_);fill:#FFFFFF;" points="
					3611.01,-490.12 3707.27,-406.45 3704.26,-406.45 3611.01,-487.51 				"/>
				<polygon style="clip-path:url(#SVGID_00000022557315100698796100000011508825366435310240_);fill:#FFFFFF;" points="
					3611.01,-492.73 3710.27,-406.45 3707.27,-406.45 3611.01,-490.12 				"/>
				<polygon style="clip-path:url(#SVGID_00000022557315100698796100000011508825366435310240_);fill:#FFFFFF;" points="
					3611.01,-495.34 3713.28,-406.45 3710.27,-406.45 3611.01,-492.73 				"/>
				<polygon style="clip-path:url(#SVGID_00000022557315100698796100000011508825366435310240_);fill:#FFFFFF;" points="
					3611.01,-497.96 3716.28,-406.45 3713.28,-406.45 3611.01,-495.34 				"/>
				<polygon style="clip-path:url(#SVGID_00000022557315100698796100000011508825366435310240_);fill:#FFFFFF;" points="
					3611.01,-500.57 3719.29,-406.45 3716.28,-406.45 3611.01,-497.96 				"/>
				<polygon style="clip-path:url(#SVGID_00000022557315100698796100000011508825366435310240_);fill:#FFFFFF;" points="
					3611.01,-503.18 3722.29,-406.45 3719.29,-406.45 3611.01,-500.57 				"/>
				<polygon style="clip-path:url(#SVGID_00000022557315100698796100000011508825366435310240_);fill:#FFFFFF;" points="
					3611.01,-505.79 3725.3,-406.45 3722.29,-406.45 3611.01,-503.18 				"/>
				<polygon style="clip-path:url(#SVGID_00000022557315100698796100000011508825366435310240_);fill:#FFFFFF;" points="
					3611.01,-508.41 3728.3,-406.45 3725.3,-406.45 3611.01,-505.79 				"/>
				<polygon style="clip-path:url(#SVGID_00000022557315100698796100000011508825366435310240_);fill:#FFFFFF;" points="
					3611.01,-511.02 3731.31,-406.45 3728.3,-406.45 3611.01,-508.41 				"/>
				<polygon style="clip-path:url(#SVGID_00000022557315100698796100000011508825366435310240_);fill:#FFFFFF;" points="
					3611.01,-513.63 3734.31,-406.45 3731.31,-406.45 3611.01,-511.02 				"/>
				<polygon style="clip-path:url(#SVGID_00000022557315100698796100000011508825366435310240_);fill:#FFFFFF;" points="
					3611.01,-516.24 3737.32,-406.45 3734.31,-406.45 3611.01,-513.63 				"/>
				<polygon style="clip-path:url(#SVGID_00000022557315100698796100000011508825366435310240_);fill:#FFFFFF;" points="
					3611.01,-518.86 3740.32,-406.45 3737.32,-406.45 3611.01,-516.24 				"/>
				<polygon style="clip-path:url(#SVGID_00000022557315100698796100000011508825366435310240_);fill:#FFFFFF;" points="
					3611.01,-521.47 3743.33,-406.45 3740.32,-406.45 3611.01,-518.86 				"/>
				<polygon style="clip-path:url(#SVGID_00000022557315100698796100000011508825366435310240_);fill:#FFFFFF;" points="
					3611.01,-524.08 3746.33,-406.45 3743.33,-406.45 3611.01,-521.47 				"/>
				<polygon style="clip-path:url(#SVGID_00000022557315100698796100000011508825366435310240_);fill:#FFFFFF;" points="
					3611.01,-526.69 3749.34,-406.45 3746.33,-406.45 3611.01,-524.08 				"/>
				<polygon style="clip-path:url(#SVGID_00000022557315100698796100000011508825366435310240_);fill:#FFFFFF;" points="
					3611.01,-529.3 3752.34,-406.45 3749.34,-406.45 3611.01,-526.69 				"/>
				<polygon style="clip-path:url(#SVGID_00000022557315100698796100000011508825366435310240_);fill:#FFFFFF;" points="
					3611.01,-531.92 3755.35,-406.45 3752.34,-406.45 3611.01,-529.3 				"/>
				<polygon style="clip-path:url(#SVGID_00000022557315100698796100000011508825366435310240_);fill:#FFFFFF;" points="
					3611.01,-534.53 3758.35,-406.45 3755.35,-406.45 3611.01,-531.92 				"/>
				<polygon style="clip-path:url(#SVGID_00000022557315100698796100000011508825366435310240_);fill:#FFFFFF;" points="
					3611.01,-537.14 3761.36,-406.45 3758.35,-406.45 3611.01,-534.53 				"/>
				<polygon style="clip-path:url(#SVGID_00000022557315100698796100000011508825366435310240_);fill:#FFFFFF;" points="
					3611.01,-539.75 3764.36,-406.45 3761.36,-406.45 3611.01,-537.14 				"/>
				<polygon style="clip-path:url(#SVGID_00000022557315100698796100000011508825366435310240_);fill:#FFFFFF;" points="
					3611.01,-542.37 3767.37,-406.45 3764.36,-406.45 3611.01,-539.75 				"/>
				<polygon style="clip-path:url(#SVGID_00000022557315100698796100000011508825366435310240_);fill:#FFFFFF;" points="
					3611.01,-544.98 3770.37,-406.45 3767.37,-406.45 3611.01,-542.37 				"/>
				<polygon style="clip-path:url(#SVGID_00000022557315100698796100000011508825366435310240_);fill:#FFFFFF;" points="
					3611.01,-547.59 3773.38,-406.45 3770.37,-406.45 3611.01,-544.98 				"/>
				<polygon style="clip-path:url(#SVGID_00000022557315100698796100000011508825366435310240_);fill:#FFFFFF;" points="
					3611.01,-550.2 3776.38,-406.45 3773.38,-406.45 3611.01,-547.59 				"/>
				<polygon style="clip-path:url(#SVGID_00000022557315100698796100000011508825366435310240_);fill:#FFFFFF;" points="
					3611.01,-552.72 3611.06,-552.77 3779.39,-406.45 3776.38,-406.45 3611.01,-550.2 				"/>
				<polygon style="clip-path:url(#SVGID_00000022557315100698796100000011508825366435310240_);fill:#FFFFFF;" points="
					3611.06,-552.77 3612.35,-554.26 3782.39,-406.45 3779.39,-406.45 				"/>
				<polygon style="clip-path:url(#SVGID_00000022557315100698796100000011508825366435310240_);fill:#FFFFFF;" points="
					3612.35,-554.26 3613.65,-555.75 3785.4,-406.45 3782.39,-406.45 				"/>
				<polygon style="clip-path:url(#SVGID_00000022557315100698796100000011508825366435310240_);fill:#FFFFFF;" points="
					3613.65,-555.75 3614.94,-557.24 3788.4,-406.45 3785.4,-406.45 				"/>
				<polygon style="clip-path:url(#SVGID_00000022557315100698796100000011508825366435310240_);fill:#FFFFFF;" points="
					3614.94,-557.24 3616.23,-558.72 3791.41,-406.45 3788.4,-406.45 				"/>
				<polygon style="clip-path:url(#SVGID_00000022557315100698796100000011508825366435310240_);fill:#FFFFFF;" points="
					3616.23,-558.72 3617.53,-560.21 3794.41,-406.45 3791.41,-406.45 				"/>
				<polygon style="clip-path:url(#SVGID_00000022557315100698796100000011508825366435310240_);fill:#FFFFFF;" points="
					3617.53,-560.21 3618.82,-561.7 3796.68,-407.09 3796.13,-406.45 3794.41,-406.45 				"/>
				
					<rect x="3707.41" y="-602.97" transform="matrix(0.6561 -0.7547 0.7547 0.6561 1641.6089 2631.9062)" style="clip-path:url(#SVGID_00000022557315100698796100000011508825366435310240_);fill:#FFFFFF;" width="1.97" height="235.67"/>
				
					<rect x="3708.71" y="-604.46" transform="matrix(0.6561 -0.7547 0.7547 0.6561 1643.1766 2632.3706)" style="clip-path:url(#SVGID_00000022557315100698796100000011508825366435310240_);fill:#FFFFFF;" width="1.97" height="235.67"/>
				
					<rect x="3710" y="-605.95" transform="matrix(0.6561 -0.7547 0.7547 0.6561 1644.7445 2632.835)" style="clip-path:url(#SVGID_00000022557315100698796100000011508825366435310240_);fill:#FFFFFF;" width="1.97" height="235.67"/>
				
					<rect x="3711.29" y="-607.44" transform="matrix(0.6561 -0.7547 0.7547 0.6561 1646.3114 2633.2988)" style="clip-path:url(#SVGID_00000022557315100698796100000011508825366435310240_);fill:#FFFFFF;" width="1.97" height="235.67"/>
				
					<rect x="3712.59" y="-608.92" transform="matrix(0.6561 -0.7547 0.7547 0.6561 1647.8801 2633.7639)" style="clip-path:url(#SVGID_00000022557315100698796100000011508825366435310240_);fill:#FFFFFF;" width="1.97" height="235.67"/>
				
					<rect x="3713.88" y="-610.41" transform="matrix(0.6561 -0.7547 0.7547 0.6561 1649.447 2634.2278)" style="clip-path:url(#SVGID_00000022557315100698796100000011508825366435310240_);fill:#FFFFFF;" width="1.97" height="235.67"/>
				
					<rect x="3715.17" y="-611.9" transform="matrix(0.6561 -0.7547 0.7547 0.6561 1651.0157 2634.6926)" style="clip-path:url(#SVGID_00000022557315100698796100000011508825366435310240_);fill:#FFFFFF;" width="1.97" height="235.67"/>
				
					<rect x="3716.47" y="-613.39" transform="matrix(0.6561 -0.7547 0.7547 0.6561 1652.5826 2635.1565)" style="clip-path:url(#SVGID_00000022557315100698796100000011508825366435310240_);fill:#FFFFFF;" width="1.97" height="235.67"/>
				
					<rect x="3717.76" y="-614.88" transform="matrix(0.6561 -0.7547 0.7547 0.6561 1654.1514 2635.6216)" style="clip-path:url(#SVGID_00000022557315100698796100000011508825366435310240_);fill:#FFFFFF;" width="1.97" height="235.67"/>
				
					<rect x="3719.05" y="-616.36" transform="matrix(0.6561 -0.7547 0.7547 0.6561 1655.7181 2636.0852)" style="clip-path:url(#SVGID_00000022557315100698796100000011508825366435310240_);fill:#FFFFFF;" width="1.97" height="235.67"/>
				
					<rect x="3720.35" y="-617.85" transform="matrix(0.6561 -0.7547 0.7547 0.6561 1657.2869 2636.5503)" style="clip-path:url(#SVGID_00000022557315100698796100000011508825366435310240_);fill:#FFFFFF;" width="1.97" height="235.67"/>
				
					<rect x="3721.64" y="-619.34" transform="matrix(0.6561 -0.7547 0.7547 0.6561 1658.8546 2637.0146)" style="clip-path:url(#SVGID_00000022557315100698796100000011508825366435310240_);fill:#FFFFFF;" width="1.97" height="235.67"/>
				
					<rect x="3722.93" y="-620.83" transform="matrix(0.6561 -0.7547 0.7547 0.6561 1660.4225 2637.479)" style="clip-path:url(#SVGID_00000022557315100698796100000011508825366435310240_);fill:#FFFFFF;" width="1.97" height="235.67"/>
				
					<rect x="3724.23" y="-622.32" transform="matrix(0.6561 -0.7547 0.7547 0.6561 1661.9894 2637.9429)" style="clip-path:url(#SVGID_00000022557315100698796100000011508825366435310240_);fill:#FFFFFF;" width="1.97" height="235.67"/>
				
					<rect x="3725.52" y="-623.8" transform="matrix(0.6561 -0.7547 0.7547 0.6561 1663.5581 2638.408)" style="clip-path:url(#SVGID_00000022557315100698796100000011508825366435310240_);fill:#FFFFFF;" width="1.97" height="235.67"/>
				
					<rect x="3726.82" y="-625.29" transform="matrix(0.6561 -0.7547 0.7547 0.6561 1665.125 2638.8716)" style="clip-path:url(#SVGID_00000022557315100698796100000011508825366435310240_);fill:#FFFFFF;" width="1.97" height="235.67"/>
				
					<rect x="3728.11" y="-626.78" transform="matrix(0.6561 -0.7547 0.7547 0.6561 1666.6937 2639.3367)" style="clip-path:url(#SVGID_00000022557315100698796100000011508825366435310240_);fill:#FFFFFF;" width="1.97" height="235.67"/>
				
					<rect x="3729.4" y="-628.27" transform="matrix(0.6561 -0.7547 0.7547 0.6561 1668.2606 2639.8005)" style="clip-path:url(#SVGID_00000022557315100698796100000011508825366435310240_);fill:#FFFFFF;" width="1.97" height="235.67"/>
				
					<rect x="3730.7" y="-629.76" transform="matrix(0.6561 -0.7547 0.7547 0.6561 1669.8292 2640.2656)" style="clip-path:url(#SVGID_00000022557315100698796100000011508825366435310240_);fill:#FFFFFF;" width="1.97" height="235.67"/>
				
					<rect x="3731.99" y="-631.24" transform="matrix(0.6561 -0.7547 0.7547 0.6561 1671.3961 2640.7292)" style="clip-path:url(#SVGID_00000022557315100698796100000011508825366435310240_);fill:#FFFFFF;" width="1.97" height="235.67"/>
				
					<rect x="3733.28" y="-632.73" transform="matrix(0.6561 -0.7547 0.7547 0.6561 1672.9648 2641.1943)" style="clip-path:url(#SVGID_00000022557315100698796100000011508825366435310240_);fill:#FFFFFF;" width="1.97" height="235.67"/>
				<polygon style="clip-path:url(#SVGID_00000022557315100698796100000011508825366435310240_);fill:#FFFFFF;" points="
					3645.98,-592.95 3646.5,-593.54 3648.31,-593.54 3825.14,-439.82 3823.85,-438.33 				"/>
				<polygon style="clip-path:url(#SVGID_00000022557315100698796100000011508825366435310240_);fill:#FFFFFF;" points="
					3651.31,-593.54 3826.43,-441.31 3825.14,-439.82 3648.31,-593.54 				"/>
				<polygon style="clip-path:url(#SVGID_00000022557315100698796100000011508825366435310240_);fill:#FFFFFF;" points="
					3654.32,-593.54 3827.73,-442.8 3826.43,-441.31 3651.31,-593.54 				"/>
				<polygon style="clip-path:url(#SVGID_00000022557315100698796100000011508825366435310240_);fill:#FFFFFF;" points="
					3657.32,-593.54 3829.02,-444.28 3827.73,-442.8 3654.32,-593.54 				"/>
				<polygon style="clip-path:url(#SVGID_00000022557315100698796100000011508825366435310240_);fill:#FFFFFF;" points="
					3660.33,-593.54 3830.31,-445.77 3829.02,-444.28 3657.32,-593.54 				"/>
				<polygon style="clip-path:url(#SVGID_00000022557315100698796100000011508825366435310240_);fill:#FFFFFF;" points="
					3663.33,-593.54 3831.61,-447.26 3830.31,-445.77 3660.33,-593.54 				"/>
				<polygon style="clip-path:url(#SVGID_00000022557315100698796100000011508825366435310240_);fill:#FFFFFF;" points="
					3666.34,-593.54 3831.61,-449.87 3831.61,-447.27 3831.61,-447.26 3663.33,-593.54 				"/>
				<polygon style="clip-path:url(#SVGID_00000022557315100698796100000011508825366435310240_);fill:#FFFFFF;" points="
					3669.34,-593.54 3831.61,-452.48 3831.61,-449.87 3666.34,-593.54 				"/>
				<polygon style="clip-path:url(#SVGID_00000022557315100698796100000011508825366435310240_);fill:#FFFFFF;" points="
					3672.35,-593.54 3831.61,-455.09 3831.61,-452.48 3669.34,-593.54 				"/>
				<polygon style="clip-path:url(#SVGID_00000022557315100698796100000011508825366435310240_);fill:#FFFFFF;" points="
					3675.35,-593.54 3831.61,-457.7 3831.61,-455.09 3672.35,-593.54 				"/>
				<polygon style="clip-path:url(#SVGID_00000022557315100698796100000011508825366435310240_);fill:#FFFFFF;" points="
					3678.36,-593.54 3831.61,-460.31 3831.61,-457.7 3675.35,-593.54 				"/>
				<polygon style="clip-path:url(#SVGID_00000022557315100698796100000011508825366435310240_);fill:#FFFFFF;" points="
					3681.36,-593.54 3831.61,-462.93 3831.61,-460.31 3678.36,-593.54 				"/>
				<polygon style="clip-path:url(#SVGID_00000022557315100698796100000011508825366435310240_);fill:#FFFFFF;" points="
					3684.37,-593.54 3831.61,-465.54 3831.61,-462.93 3681.36,-593.54 				"/>
				<polygon style="clip-path:url(#SVGID_00000022557315100698796100000011508825366435310240_);fill:#FFFFFF;" points="
					3687.37,-593.54 3831.61,-468.15 3831.61,-465.54 3684.37,-593.54 				"/>
				<polygon style="clip-path:url(#SVGID_00000022557315100698796100000011508825366435310240_);fill:#FFFFFF;" points="
					3690.38,-593.54 3831.61,-470.76 3831.61,-468.15 3687.37,-593.54 				"/>
				<polygon style="clip-path:url(#SVGID_00000022557315100698796100000011508825366435310240_);fill:#FFFFFF;" points="
					3693.38,-593.54 3831.61,-473.38 3831.61,-470.76 3690.38,-593.54 				"/>
				<polygon style="clip-path:url(#SVGID_00000022557315100698796100000011508825366435310240_);fill:#FFFFFF;" points="
					3696.39,-593.54 3831.61,-475.99 3831.61,-473.38 3693.38,-593.54 				"/>
				<polygon style="clip-path:url(#SVGID_00000022557315100698796100000011508825366435310240_);fill:#FFFFFF;" points="
					3699.39,-593.54 3831.61,-478.6 3831.61,-475.99 3696.39,-593.54 				"/>
				<polygon style="clip-path:url(#SVGID_00000022557315100698796100000011508825366435310240_);fill:#FFFFFF;" points="
					3702.4,-593.54 3831.61,-481.21 3831.61,-478.6 3699.39,-593.54 				"/>
				<polygon style="clip-path:url(#SVGID_00000022557315100698796100000011508825366435310240_);fill:#FFFFFF;" points="
					3705.4,-593.54 3831.61,-483.82 3831.61,-481.21 3702.4,-593.54 				"/>
				<polygon style="clip-path:url(#SVGID_00000022557315100698796100000011508825366435310240_);fill:#FFFFFF;" points="
					3708.41,-593.54 3831.61,-486.44 3831.61,-483.82 3705.4,-593.54 				"/>
				<polygon style="clip-path:url(#SVGID_00000022557315100698796100000011508825366435310240_);fill:#FFFFFF;" points="
					3711.41,-593.54 3831.61,-489.05 3831.61,-486.44 3708.41,-593.54 				"/>
				<polygon style="clip-path:url(#SVGID_00000022557315100698796100000011508825366435310240_);fill:#FFFFFF;" points="
					3714.42,-593.54 3831.61,-491.66 3831.61,-489.05 3711.41,-593.54 				"/>
				<polygon style="clip-path:url(#SVGID_00000022557315100698796100000011508825366435310240_);fill:#FFFFFF;" points="
					3717.42,-593.54 3831.61,-494.27 3831.61,-491.66 3714.42,-593.54 				"/>
				<polygon style="clip-path:url(#SVGID_00000022557315100698796100000011508825366435310240_);fill:#FFFFFF;" points="
					3720.43,-593.54 3831.61,-496.89 3831.61,-494.27 3717.42,-593.54 				"/>
				<polygon style="clip-path:url(#SVGID_00000022557315100698796100000011508825366435310240_);fill:#FFFFFF;" points="
					3723.43,-593.54 3831.61,-499.5 3831.61,-496.89 3720.43,-593.54 				"/>
				<polygon style="clip-path:url(#SVGID_00000022557315100698796100000011508825366435310240_);fill:#FFFFFF;" points="
					3726.44,-593.54 3831.61,-502.11 3831.61,-499.5 3723.43,-593.54 				"/>
				<polygon style="clip-path:url(#SVGID_00000022557315100698796100000011508825366435310240_);fill:#FFFFFF;" points="
					3729.44,-593.54 3831.61,-504.72 3831.61,-502.11 3726.44,-593.54 				"/>
				<polygon style="clip-path:url(#SVGID_00000022557315100698796100000011508825366435310240_);fill:#FFFFFF;" points="
					3732.45,-593.54 3831.61,-507.34 3831.61,-504.72 3729.44,-593.54 				"/>
				<polygon style="clip-path:url(#SVGID_00000022557315100698796100000011508825366435310240_);fill:#FFFFFF;" points="
					3735.45,-593.54 3831.61,-509.95 3831.61,-507.34 3732.45,-593.54 				"/>
				<polygon style="clip-path:url(#SVGID_00000022557315100698796100000011508825366435310240_);fill:#FFFFFF;" points="
					3738.46,-593.54 3831.61,-512.56 3831.61,-509.95 3735.45,-593.54 				"/>
				<polygon style="clip-path:url(#SVGID_00000022557315100698796100000011508825366435310240_);fill:#FFFFFF;" points="
					3741.46,-593.54 3831.61,-515.17 3831.61,-512.56 3738.46,-593.54 				"/>
				<polygon style="clip-path:url(#SVGID_00000022557315100698796100000011508825366435310240_);fill:#FFFFFF;" points="
					3744.47,-593.54 3831.61,-517.78 3831.61,-515.17 3741.46,-593.54 				"/>
				<polygon style="clip-path:url(#SVGID_00000022557315100698796100000011508825366435310240_);fill:#FFFFFF;" points="
					3747.47,-593.54 3831.61,-520.4 3831.61,-517.78 3744.47,-593.54 				"/>
				<polygon style="clip-path:url(#SVGID_00000022557315100698796100000011508825366435310240_);fill:#FFFFFF;" points="
					3750.48,-593.54 3831.61,-523.01 3831.61,-520.4 3747.47,-593.54 				"/>
				<polygon style="clip-path:url(#SVGID_00000022557315100698796100000011508825366435310240_);fill:#FFFFFF;" points="
					3753.48,-593.54 3831.61,-525.62 3831.61,-523.01 3750.48,-593.54 				"/>
				<polygon style="clip-path:url(#SVGID_00000022557315100698796100000011508825366435310240_);fill:#FFFFFF;" points="
					3756.49,-593.54 3831.61,-528.23 3831.61,-525.62 3753.48,-593.54 				"/>
				<polygon style="clip-path:url(#SVGID_00000022557315100698796100000011508825366435310240_);fill:#FFFFFF;" points="
					3759.49,-593.54 3831.61,-530.85 3831.61,-528.23 3756.49,-593.54 				"/>
				<polygon style="clip-path:url(#SVGID_00000022557315100698796100000011508825366435310240_);fill:#FFFFFF;" points="
					3762.5,-593.54 3831.61,-533.46 3831.61,-530.85 3759.49,-593.54 				"/>
				<polygon style="clip-path:url(#SVGID_00000022557315100698796100000011508825366435310240_);fill:#FFFFFF;" points="
					3765.5,-593.54 3831.61,-536.07 3831.61,-533.46 3762.5,-593.54 				"/>
				<polygon style="clip-path:url(#SVGID_00000022557315100698796100000011508825366435310240_);fill:#FFFFFF;" points="
					3768.51,-593.54 3831.61,-538.68 3831.61,-536.07 3765.5,-593.54 				"/>
				<polygon style="clip-path:url(#SVGID_00000022557315100698796100000011508825366435310240_);fill:#FFFFFF;" points="
					3771.51,-593.54 3831.61,-541.29 3831.61,-538.68 3768.51,-593.54 				"/>
				<polygon style="clip-path:url(#SVGID_00000022557315100698796100000011508825366435310240_);fill:#FFFFFF;" points="
					3774.52,-593.54 3831.61,-543.91 3831.61,-541.29 3771.51,-593.54 				"/>
				<polygon style="clip-path:url(#SVGID_00000022557315100698796100000011508825366435310240_);fill:#FFFFFF;" points="
					3777.52,-593.54 3831.61,-546.52 3831.61,-543.91 3774.52,-593.54 				"/>
				<polygon style="clip-path:url(#SVGID_00000022557315100698796100000011508825366435310240_);fill:#FFFFFF;" points="
					3780.53,-593.54 3831.61,-549.13 3831.61,-546.52 3777.52,-593.54 				"/>
				<polygon style="clip-path:url(#SVGID_00000022557315100698796100000011508825366435310240_);fill:#FFFFFF;" points="
					3783.53,-593.54 3831.61,-551.74 3831.61,-549.13 3780.53,-593.54 				"/>
				<polygon style="clip-path:url(#SVGID_00000022557315100698796100000011508825366435310240_);fill:#FFFFFF;" points="
					3786.54,-593.54 3831.61,-554.36 3831.61,-551.74 3783.53,-593.54 				"/>
				<polygon style="clip-path:url(#SVGID_00000022557315100698796100000011508825366435310240_);fill:#FFFFFF;" points="
					3789.54,-593.54 3831.61,-556.97 3831.61,-554.36 3786.54,-593.54 				"/>
				<polygon style="clip-path:url(#SVGID_00000022557315100698796100000011508825366435310240_);fill:#FFFFFF;" points="
					3792.55,-593.54 3831.61,-559.58 3831.61,-556.97 3789.54,-593.54 				"/>
				<polygon style="clip-path:url(#SVGID_00000022557315100698796100000011508825366435310240_);fill:#FFFFFF;" points="
					3795.55,-593.54 3831.61,-562.19 3831.61,-559.58 3792.55,-593.54 				"/>
				<polygon style="clip-path:url(#SVGID_00000022557315100698796100000011508825366435310240_);fill:#FFFFFF;" points="
					3798.56,-593.54 3831.61,-564.8 3831.61,-562.19 3795.55,-593.54 				"/>
				<polygon style="clip-path:url(#SVGID_00000022557315100698796100000011508825366435310240_);fill:#FFFFFF;" points="
					3801.56,-593.54 3831.61,-567.42 3831.61,-564.8 3798.56,-593.54 				"/>
				<polygon style="clip-path:url(#SVGID_00000022557315100698796100000011508825366435310240_);fill:#FFFFFF;" points="
					3804.57,-593.54 3831.61,-570.03 3831.61,-567.42 3801.56,-593.54 				"/>
				<polygon style="clip-path:url(#SVGID_00000022557315100698796100000011508825366435310240_);fill:#FFFFFF;" points="
					3807.57,-593.54 3831.61,-572.64 3831.61,-570.03 3804.57,-593.54 				"/>
				<polygon style="clip-path:url(#SVGID_00000022557315100698796100000011508825366435310240_);fill:#FFFFFF;" points="
					3810.58,-593.54 3831.61,-575.25 3831.61,-572.64 3807.57,-593.54 				"/>
				<polygon style="clip-path:url(#SVGID_00000022557315100698796100000011508825366435310240_);fill:#FFFFFF;" points="
					3813.58,-593.54 3831.61,-577.87 3831.61,-575.25 3810.58,-593.54 				"/>
				<polygon style="clip-path:url(#SVGID_00000022557315100698796100000011508825366435310240_);fill:#FFFFFF;" points="
					3816.59,-593.54 3831.61,-580.48 3831.61,-577.87 3813.58,-593.54 				"/>
				<polygon style="clip-path:url(#SVGID_00000022557315100698796100000011508825366435310240_);fill:#FFFFFF;" points="
					3819.59,-593.54 3831.61,-583.09 3831.61,-580.48 3816.59,-593.54 				"/>
				<polygon style="clip-path:url(#SVGID_00000022557315100698796100000011508825366435310240_);fill:#FFFFFF;" points="
					3822.6,-593.54 3831.61,-585.7 3831.61,-583.09 3819.59,-593.54 				"/>
				<polygon style="clip-path:url(#SVGID_00000022557315100698796100000011508825366435310240_);fill:#FFFFFF;" points="
					3825.6,-593.54 3831.61,-588.32 3831.61,-585.7 3822.6,-593.54 				"/>
				<polygon style="clip-path:url(#SVGID_00000022557315100698796100000011508825366435310240_);fill:#FFFFFF;" points="
					3828.61,-593.54 3831.61,-590.93 3831.61,-588.32 3825.6,-593.54 				"/>
				<polygon style="clip-path:url(#SVGID_00000022557315100698796100000011508825366435310240_);fill:#FFFFFF;" points="
					3831.61,-593.54 3831.61,-590.93 3828.61,-593.54 				"/>
				<path style="clip-path:url(#SVGID_00000022557315100698796100000011508825366435310240_);fill:#FFFFFF;" d="M3831.61-593.54
					L3831.61-593.54z"/>
			</g>
		</g>
		<g>
			<path class="st2" d="M3921.86-473.72h-39.73l-14.22,67.27h-38.84l39.73-187.09h81.49c18.79,0,32.73,4.82,41.82,14.47
				c9.1,9.65,11.53,24.58,7.3,44.8c-4.74,22.09-13.67,37.7-26.78,46.84C3959.51-478.29,3942.59-473.72,3921.86-473.72z
				 M3937.09-561.05h-36.43l-11.68,55.09h36.43c9.22,0,16.88-2.24,22.97-6.73c6.09-4.48,10.15-11.59,12.19-21.32
				c2.11-9.73,1.04-16.67-3.24-20.82C3953.06-558.97,3946.31-561.05,3937.09-561.05z"/>
		</g>
		<g>
			<path class="st2" d="M4041.3-593.54h39.73l-24.5,115c-2.71,12.86-3.17,22.26-1.4,28.18c2.54,10.49,11.76,15.74,27.67,15.74
				c15.82,0,27.2-5.25,34.14-15.74c4.32-5.92,7.83-15.31,10.53-28.18l24.5-115h39.73l-24.5,115c-4.23,19.89-10.62,35.37-19.17,46.46
				c-15.82,20.31-39.94,30.46-72.35,30.46c-32.41,0-52.25-10.15-59.53-30.46c-3.81-11.08-3.6-26.57,0.63-46.46L4041.3-593.54z"/>
		</g>
		<g>
			<path class="st2" d="M4229.79-464.2c-0.59,8.55,0.38,14.94,2.92,19.17c4.74,7.7,14.81,11.55,30.21,11.55
				c9.22,0,16.92-1.02,23.1-3.05c11.76-3.89,18.74-11.13,20.94-21.71c1.35-6.18-0.34-10.96-5.08-14.34
				c-4.65-3.3-12.52-6.22-23.61-8.76l-18.91-4.44c-18.53-4.4-30.97-9.18-37.32-14.34c-10.75-8.63-14.17-22.13-10.28-40.49
				c3.55-16.75,12.61-30.67,27.16-41.76c14.55-11.08,33.64-16.63,57.24-16.63c19.72,0,35.41,5.23,47.09,15.68
				c11.68,10.45,15.74,25.62,12.19,45.5h-37.57c1.78-11.25-1.4-19.25-9.52-23.99c-5.42-3.13-12.65-4.7-21.71-4.7
				c-10.07,0-18.55,2.03-25.45,6.09c-6.9,4.06-11.11,9.73-12.63,17.01c-1.44,6.69,0.46,11.68,5.71,14.98
				c3.3,2.2,10.87,4.78,22.72,7.74l30.59,7.74c13.37,3.39,23.06,7.91,29.07,13.58c9.31,8.8,12.19,21.54,8.63,38.21
				c-3.64,17.09-13.2,31.29-28.69,42.58c-15.49,11.3-35.16,16.94-59.02,16.94c-24.37,0-42.35-5.56-53.94-16.69
				c-11.59-11.13-15.32-26.42-11.17-45.88H4229.79z"/>
		</g>
	</g>
	<g>
		<path class="st2" d="M4435.35-1357.77c-38.36-90.69-93.27-172.13-163.19-242.06c-69.93-69.93-151.37-124.84-242.06-163.19
			c-93.91-39.72-193.65-59.86-296.44-59.86s-202.53,20.14-296.44,59.86c-90.69,38.36-172.13,93.27-242.06,163.19
			c-69.93,69.93-124.84,151.37-163.2,242.06c-39.72,93.91-59.86,193.65-59.86,296.44c0,102.8,20.14,202.53,59.86,296.44
			c19.28,45.58,42.74,88.82,70.19,129.44h77.82c-36.09-46.82-66.4-98.31-89.82-153.41l305.9-420.64l53.77,77.25L3267.24-881.2h77.57
			l168.55-231.78l229.04-314.79l229.56,329.57l0.02,0.03l25.11,36.04l0.1-0.13l127.06,181.06h76.39v0.83l0.56-0.39l-165.01-235.13
			l62.78-86.33l281.76,404.8c-23.88,58.34-55.45,112.74-93.41,161.97h77.84c27.45-40.62,50.91-83.86,70.19-129.44
			c39.72-93.91,59.86-193.65,59.86-296.44C4495.21-1164.12,4475.07-1263.86,4435.35-1357.77z M4406.08-870.82l-305.98-439.6
			l-101.9,140.12l-254.67-365.63l-254.65,349.98l-91.71-131.76l-332.8,457.62c-19.21-63.75-29.54-131.31-29.54-201.24
			c0-385.33,313.49-698.82,698.82-698.82s698.82,313.49,698.82,698.82C4432.47-995.31,4423.27-931.4,4406.08-870.82z"/>
	</g>
</g>
<g>
	<g>
		<g>
			<path d="M5038.47-423.08c-17.18,14.55-39.14,21.83-65.88,21.83c-26.74,0-45.65-7.28-56.74-21.83
				c-15.15-17.85-19.12-43.58-11.93-77.17c7.28-34.27,22.21-59.99,44.81-77.17c17.18-14.55,39.14-21.83,65.88-21.83
				c26.74,0,45.65,7.28,56.74,21.83c15.23,17.18,19.21,42.9,11.93,77.17C5076.08-466.65,5061.15-440.93,5038.47-423.08z
				 M5044.18-500.25c4.4-20.98,3.28-37.21-3.36-48.68c-6.64-11.47-17.71-17.2-33.19-17.2c-15.49,0-29.05,5.71-40.68,17.13
				c-11.64,11.42-19.7,27.67-24.18,48.74c-4.49,21.07-3.34,37.32,3.43,48.74c6.77,11.42,17.9,17.13,33.38,17.13
				c15.49,0,29-5.71,40.55-17.13C5031.68-462.93,5039.69-479.18,5044.18-500.25z"/>
		</g>
		<g>
			<path d="M5132.9-593.54H5172l-32.62,153.46h92.66l-7.11,33.64h-131.75L5132.9-593.54z"/>
		</g>
		<g>
			<path d="M5374.57-593.54h44.3l-87.45,116.77l-14.85,70.32h-39.09l14.85-70.32l-39.85-116.77h46.08l21.45,81.49L5374.57-593.54z"
				/>
		</g>
		<g>
			<g>
				<defs>
					<path id="SVGID_00000147195889435149427490000016612168420091461554_" d="M5565.22-593.54h56.23l-39.73,187.09h-36.43
						L5572.07-533c0.85-3.64,2.01-8.74,3.49-15.29c1.48-6.56,2.56-11.61,3.24-15.17l-68.67,157.01h-37.95l-1.9-157.01
						c-0.68,3.55-1.67,8.61-2.98,15.17c-1.31,6.56-2.39,11.66-3.24,15.29l-26.78,126.55h-36.43l39.73-187.09h56.86l2.67,147.11
						L5565.22-593.54z"/>
				</defs>
				<use xlink:href="#SVGID_00000147195889435149427490000016612168420091461554_"  style="overflow:visible;"/>
				<clipPath id="SVGID_00000052812431938193742470000015966875593610717878_">
					<use xlink:href="#SVGID_00000147195889435149427490000016612168420091461554_"  style="overflow:visible;"/>
				</clipPath>
				<polygon style="clip-path:url(#SVGID_00000052812431938193742470000015966875593610717878_);" points="5400.85,-450.94 
					5452.03,-406.45 5400.85,-406.45 				"/>
				<polygon style="clip-path:url(#SVGID_00000052812431938193742470000015966875593610717878_);" points="5400.85,-453.55 
					5455.03,-406.45 5452.03,-406.45 5400.85,-450.94 				"/>
				<polygon style="clip-path:url(#SVGID_00000052812431938193742470000015966875593610717878_);" points="5400.85,-456.16 
					5458.04,-406.45 5455.03,-406.45 5400.85,-453.55 				"/>
				<polygon style="clip-path:url(#SVGID_00000052812431938193742470000015966875593610717878_);" points="5400.85,-458.77 
					5461.04,-406.45 5458.04,-406.45 5400.85,-456.16 				"/>
				<polygon style="clip-path:url(#SVGID_00000052812431938193742470000015966875593610717878_);" points="5400.85,-461.39 
					5464.05,-406.45 5461.04,-406.45 5400.85,-458.77 				"/>
				<polygon style="clip-path:url(#SVGID_00000052812431938193742470000015966875593610717878_);" points="5400.85,-464 
					5467.05,-406.45 5464.05,-406.45 5400.85,-461.39 				"/>
				<polygon style="clip-path:url(#SVGID_00000052812431938193742470000015966875593610717878_);" points="5400.85,-466.61 
					5470.06,-406.45 5467.05,-406.45 5400.85,-464 				"/>
				<polygon style="clip-path:url(#SVGID_00000052812431938193742470000015966875593610717878_);" points="5400.85,-469.22 
					5473.06,-406.45 5470.06,-406.45 5400.85,-466.61 				"/>
				<polygon style="clip-path:url(#SVGID_00000052812431938193742470000015966875593610717878_);" points="5400.85,-471.83 
					5476.07,-406.45 5473.06,-406.45 5400.85,-469.22 				"/>
				<polygon style="clip-path:url(#SVGID_00000052812431938193742470000015966875593610717878_);" points="5400.85,-474.45 
					5479.07,-406.45 5476.07,-406.45 5400.85,-471.83 				"/>
				<polygon style="clip-path:url(#SVGID_00000052812431938193742470000015966875593610717878_);" points="5400.85,-477.06 
					5482.08,-406.45 5479.07,-406.45 5400.85,-474.45 				"/>
				<polygon style="clip-path:url(#SVGID_00000052812431938193742470000015966875593610717878_);" points="5400.85,-479.67 
					5485.08,-406.45 5482.08,-406.45 5400.85,-477.06 				"/>
				<polygon style="clip-path:url(#SVGID_00000052812431938193742470000015966875593610717878_);" points="5400.85,-482.28 
					5488.09,-406.45 5485.08,-406.45 5400.85,-479.67 				"/>
				<polygon style="clip-path:url(#SVGID_00000052812431938193742470000015966875593610717878_);" points="5400.85,-484.9 
					5491.09,-406.45 5488.09,-406.45 5400.85,-482.28 				"/>
				<polygon style="clip-path:url(#SVGID_00000052812431938193742470000015966875593610717878_);" points="5400.85,-487.51 
					5494.1,-406.45 5491.09,-406.45 5400.85,-484.9 				"/>
				<polygon style="clip-path:url(#SVGID_00000052812431938193742470000015966875593610717878_);" points="5400.85,-490.12 
					5497.1,-406.45 5494.1,-406.45 5400.85,-487.51 				"/>
				<polygon style="clip-path:url(#SVGID_00000052812431938193742470000015966875593610717878_);" points="5400.85,-492.73 
					5500.11,-406.45 5497.1,-406.45 5400.85,-490.12 				"/>
				<polygon style="clip-path:url(#SVGID_00000052812431938193742470000015966875593610717878_);" points="5400.85,-495.34 
					5503.11,-406.45 5500.11,-406.45 5400.85,-492.73 				"/>
				<polygon style="clip-path:url(#SVGID_00000052812431938193742470000015966875593610717878_);" points="5400.85,-497.96 
					5506.12,-406.45 5503.11,-406.45 5400.85,-495.34 				"/>
				<polygon style="clip-path:url(#SVGID_00000052812431938193742470000015966875593610717878_);" points="5400.85,-500.57 
					5509.12,-406.45 5506.12,-406.45 5400.85,-497.96 				"/>
				<polygon style="clip-path:url(#SVGID_00000052812431938193742470000015966875593610717878_);" points="5400.85,-503.18 
					5512.13,-406.45 5509.12,-406.45 5400.85,-500.57 				"/>
				<polygon style="clip-path:url(#SVGID_00000052812431938193742470000015966875593610717878_);" points="5400.85,-505.79 
					5515.13,-406.45 5512.13,-406.45 5400.85,-503.18 				"/>
				<polygon style="clip-path:url(#SVGID_00000052812431938193742470000015966875593610717878_);" points="5400.85,-508.41 
					5518.14,-406.45 5515.13,-406.45 5400.85,-505.79 				"/>
				<polygon style="clip-path:url(#SVGID_00000052812431938193742470000015966875593610717878_);" points="5400.85,-511.02 
					5521.14,-406.45 5518.14,-406.45 5400.85,-508.41 				"/>
				<polygon style="clip-path:url(#SVGID_00000052812431938193742470000015966875593610717878_);" points="5400.85,-513.63 
					5524.15,-406.45 5521.14,-406.45 5400.85,-511.02 				"/>
				<polygon style="clip-path:url(#SVGID_00000052812431938193742470000015966875593610717878_);" points="5400.85,-516.24 
					5527.15,-406.45 5524.15,-406.45 5400.85,-513.63 				"/>
				<polygon style="clip-path:url(#SVGID_00000052812431938193742470000015966875593610717878_);" points="5400.85,-518.86 
					5530.16,-406.45 5527.15,-406.45 5400.85,-516.24 				"/>
				<polygon style="clip-path:url(#SVGID_00000052812431938193742470000015966875593610717878_);" points="5400.85,-521.47 
					5533.16,-406.45 5530.16,-406.45 5400.85,-518.86 				"/>
				<polygon style="clip-path:url(#SVGID_00000052812431938193742470000015966875593610717878_);" points="5400.85,-524.08 
					5536.17,-406.45 5533.16,-406.45 5400.85,-521.47 				"/>
				<polygon style="clip-path:url(#SVGID_00000052812431938193742470000015966875593610717878_);" points="5400.85,-526.69 
					5539.17,-406.45 5536.17,-406.45 5400.85,-524.08 				"/>
				<polygon style="clip-path:url(#SVGID_00000052812431938193742470000015966875593610717878_);" points="5400.85,-529.3 
					5542.18,-406.45 5539.17,-406.45 5400.85,-526.69 				"/>
				<polygon style="clip-path:url(#SVGID_00000052812431938193742470000015966875593610717878_);" points="5400.85,-531.92 
					5545.18,-406.45 5542.18,-406.45 5400.85,-529.3 				"/>
				<polygon style="clip-path:url(#SVGID_00000052812431938193742470000015966875593610717878_);" points="5400.85,-534.53 
					5548.19,-406.45 5545.18,-406.45 5400.85,-531.92 				"/>
				<polygon style="clip-path:url(#SVGID_00000052812431938193742470000015966875593610717878_);" points="5400.85,-537.14 
					5551.19,-406.45 5548.19,-406.45 5400.85,-534.53 				"/>
				<polygon style="clip-path:url(#SVGID_00000052812431938193742470000015966875593610717878_);" points="5400.85,-539.75 
					5554.2,-406.45 5551.19,-406.45 5400.85,-537.14 				"/>
				<polygon style="clip-path:url(#SVGID_00000052812431938193742470000015966875593610717878_);" points="5400.85,-542.37 
					5557.2,-406.45 5554.2,-406.45 5400.85,-539.75 				"/>
				<polygon style="clip-path:url(#SVGID_00000052812431938193742470000015966875593610717878_);" points="5400.85,-544.98 
					5560.21,-406.45 5557.2,-406.45 5400.85,-542.37 				"/>
				<polygon style="clip-path:url(#SVGID_00000052812431938193742470000015966875593610717878_);" points="5400.85,-547.59 
					5563.21,-406.45 5560.21,-406.45 5400.85,-544.98 				"/>
				<polygon style="clip-path:url(#SVGID_00000052812431938193742470000015966875593610717878_);" points="5400.85,-550.2 
					5566.22,-406.45 5563.21,-406.45 5400.85,-547.59 				"/>
				<polygon style="clip-path:url(#SVGID_00000052812431938193742470000015966875593610717878_);" points="5400.85,-552.72 
					5400.9,-552.77 5569.22,-406.45 5566.22,-406.45 5400.85,-550.2 				"/>
				<polygon style="clip-path:url(#SVGID_00000052812431938193742470000015966875593610717878_);" points="5400.9,-552.77 
					5402.19,-554.26 5572.23,-406.45 5569.22,-406.45 				"/>
				<polygon style="clip-path:url(#SVGID_00000052812431938193742470000015966875593610717878_);" points="5402.19,-554.26 
					5403.48,-555.75 5575.23,-406.45 5572.23,-406.45 				"/>
				<polygon style="clip-path:url(#SVGID_00000052812431938193742470000015966875593610717878_);" points="5403.48,-555.75 
					5404.78,-557.24 5578.24,-406.45 5575.23,-406.45 				"/>
				<polygon style="clip-path:url(#SVGID_00000052812431938193742470000015966875593610717878_);" points="5404.78,-557.24 
					5406.07,-558.72 5581.24,-406.45 5578.24,-406.45 				"/>
				<polygon style="clip-path:url(#SVGID_00000052812431938193742470000015966875593610717878_);" points="5406.07,-558.72 
					5407.36,-560.21 5584.25,-406.45 5581.24,-406.45 				"/>
				<polygon style="clip-path:url(#SVGID_00000052812431938193742470000015966875593610717878_);" points="5407.36,-560.21 
					5408.66,-561.7 5586.52,-407.09 5585.96,-406.45 5584.25,-406.45 				"/>
				
					<rect x="5497.25" y="-602.97" transform="matrix(0.6561 -0.7547 0.7547 0.6561 2257.2065 3982.7119)" style="clip-path:url(#SVGID_00000052812431938193742470000015966875593610717878_);" width="1.97" height="235.67"/>
				
					<rect x="5498.54" y="-604.46" transform="matrix(0.6561 -0.7547 0.7547 0.6561 2258.7742 3983.176)" style="clip-path:url(#SVGID_00000052812431938193742470000015966875593610717878_);" width="1.97" height="235.67"/>
				
					<rect x="5499.84" y="-605.95" transform="matrix(0.6561 -0.7547 0.7547 0.6561 2260.3423 3983.6406)" style="clip-path:url(#SVGID_00000052812431938193742470000015966875593610717878_);" width="1.97" height="235.67"/>
				
					<rect x="5501.13" y="-607.44" transform="matrix(0.6561 -0.7547 0.7547 0.6561 2261.9087 3984.104)" style="clip-path:url(#SVGID_00000052812431938193742470000015966875593610717878_);" width="1.97" height="235.67"/>
				
					<rect x="5502.42" y="-608.92" transform="matrix(0.6561 -0.7547 0.7547 0.6561 2263.4778 3984.5693)" style="clip-path:url(#SVGID_00000052812431938193742470000015966875593610717878_);" width="1.97" height="235.67"/>
				
					<rect x="5503.72" y="-610.41" transform="matrix(0.6561 -0.7547 0.7547 0.6561 2265.0442 3985.033)" style="clip-path:url(#SVGID_00000052812431938193742470000015966875593610717878_);" width="1.97" height="235.67"/>
				
					<rect x="5505.01" y="-611.9" transform="matrix(0.6561 -0.7547 0.7547 0.6561 2266.6133 3985.4983)" style="clip-path:url(#SVGID_00000052812431938193742470000015966875593610717878_);" width="1.97" height="235.67"/>
				
					<rect x="5506.3" y="-613.39" transform="matrix(0.6561 -0.7547 0.7547 0.6561 2268.1799 3985.9617)" style="clip-path:url(#SVGID_00000052812431938193742470000015966875593610717878_);" width="1.97" height="235.67"/>
				
					<rect x="5507.6" y="-614.88" transform="matrix(0.6561 -0.7547 0.7547 0.6561 2269.749 3986.427)" style="clip-path:url(#SVGID_00000052812431938193742470000015966875593610717878_);" width="1.97" height="235.67"/>
				
					<rect x="5508.89" y="-616.36" transform="matrix(0.6561 -0.7547 0.7547 0.6561 2271.3154 3986.8906)" style="clip-path:url(#SVGID_00000052812431938193742470000015966875593610717878_);" width="1.97" height="235.67"/>
				
					<rect x="5510.18" y="-617.85" transform="matrix(0.6561 -0.7547 0.7547 0.6561 2272.8845 3987.356)" style="clip-path:url(#SVGID_00000052812431938193742470000015966875593610717878_);" width="1.97" height="235.67"/>
				
					<rect x="5511.48" y="-619.34" transform="matrix(0.6561 -0.7547 0.7547 0.6561 2274.4521 3987.8201)" style="clip-path:url(#SVGID_00000052812431938193742470000015966875593610717878_);" width="1.97" height="235.67"/>
				
					<rect x="5512.77" y="-620.83" transform="matrix(0.6561 -0.7547 0.7547 0.6561 2276.0203 3988.2847)" style="clip-path:url(#SVGID_00000052812431938193742470000015966875593610717878_);" width="1.97" height="235.67"/>
				
					<rect x="5514.06" y="-622.32" transform="matrix(0.6561 -0.7547 0.7547 0.6561 2277.5867 3988.748)" style="clip-path:url(#SVGID_00000052812431938193742470000015966875593610717878_);" width="1.97" height="235.67"/>
				
					<rect x="5515.36" y="-623.8" transform="matrix(0.6561 -0.7547 0.7547 0.6561 2279.1558 3989.2134)" style="clip-path:url(#SVGID_00000052812431938193742470000015966875593610717878_);" width="1.97" height="235.67"/>
				
					<rect x="5516.65" y="-625.29" transform="matrix(0.6561 -0.7547 0.7547 0.6561 2280.7222 3989.677)" style="clip-path:url(#SVGID_00000052812431938193742470000015966875593610717878_);" width="1.97" height="235.67"/>
				
					<rect x="5517.94" y="-626.78" transform="matrix(0.6561 -0.7547 0.7547 0.6561 2282.2913 3990.1423)" style="clip-path:url(#SVGID_00000052812431938193742470000015966875593610717878_);" width="1.97" height="235.67"/>
				
					<rect x="5519.24" y="-628.27" transform="matrix(0.6561 -0.7547 0.7547 0.6561 2283.8579 3990.6057)" style="clip-path:url(#SVGID_00000052812431938193742470000015966875593610717878_);" width="1.97" height="235.67"/>
				
					<rect x="5520.53" y="-629.76" transform="matrix(0.6561 -0.7547 0.7547 0.6561 2285.427 3991.071)" style="clip-path:url(#SVGID_00000052812431938193742470000015966875593610717878_);" width="1.97" height="235.67"/>
				
					<rect x="5521.82" y="-631.24" transform="matrix(0.6561 -0.7547 0.7547 0.6561 2286.9934 3991.5344)" style="clip-path:url(#SVGID_00000052812431938193742470000015966875593610717878_);" width="1.97" height="235.67"/>
				
					<rect x="5523.12" y="-632.73" transform="matrix(0.6561 -0.7547 0.7547 0.6561 2288.5625 3992)" style="clip-path:url(#SVGID_00000052812431938193742470000015966875593610717878_);" width="1.97" height="235.67"/>
				<polygon style="clip-path:url(#SVGID_00000052812431938193742470000015966875593610717878_);" points="5435.82,-592.95 
					5436.33,-593.54 5438.14,-593.54 5614.97,-439.82 5613.68,-438.33 				"/>
				<polygon style="clip-path:url(#SVGID_00000052812431938193742470000015966875593610717878_);" points="5441.15,-593.54 
					5616.27,-441.31 5614.97,-439.82 5438.14,-593.54 				"/>
				<polygon style="clip-path:url(#SVGID_00000052812431938193742470000015966875593610717878_);" points="5444.15,-593.54 
					5617.56,-442.8 5616.27,-441.31 5441.15,-593.54 				"/>
				<polygon style="clip-path:url(#SVGID_00000052812431938193742470000015966875593610717878_);" points="5447.16,-593.54 
					5618.85,-444.28 5617.56,-442.8 5444.15,-593.54 				"/>
				<polygon style="clip-path:url(#SVGID_00000052812431938193742470000015966875593610717878_);" points="5450.16,-593.54 
					5620.15,-445.77 5618.85,-444.28 5447.16,-593.54 				"/>
				<polygon style="clip-path:url(#SVGID_00000052812431938193742470000015966875593610717878_);" points="5453.17,-593.54 
					5621.44,-447.26 5620.15,-445.77 5450.16,-593.54 				"/>
				<polygon style="clip-path:url(#SVGID_00000052812431938193742470000015966875593610717878_);" points="5456.17,-593.54 
					5621.45,-449.87 5621.45,-447.27 5621.44,-447.26 5453.17,-593.54 				"/>
				<polygon style="clip-path:url(#SVGID_00000052812431938193742470000015966875593610717878_);" points="5459.18,-593.54 
					5621.45,-452.48 5621.45,-449.87 5456.17,-593.54 				"/>
				<polygon style="clip-path:url(#SVGID_00000052812431938193742470000015966875593610717878_);" points="5462.18,-593.54 
					5621.45,-455.09 5621.45,-452.48 5459.18,-593.54 				"/>
				<polygon style="clip-path:url(#SVGID_00000052812431938193742470000015966875593610717878_);" points="5465.19,-593.54 
					5621.45,-457.7 5621.45,-455.09 5462.18,-593.54 				"/>
				<polygon style="clip-path:url(#SVGID_00000052812431938193742470000015966875593610717878_);" points="5468.19,-593.54 
					5621.45,-460.31 5621.45,-457.7 5465.19,-593.54 				"/>
				<polygon style="clip-path:url(#SVGID_00000052812431938193742470000015966875593610717878_);" points="5471.2,-593.54 
					5621.45,-462.93 5621.45,-460.31 5468.19,-593.54 				"/>
				<polygon style="clip-path:url(#SVGID_00000052812431938193742470000015966875593610717878_);" points="5474.2,-593.54 
					5621.45,-465.54 5621.45,-462.93 5471.2,-593.54 				"/>
				<polygon style="clip-path:url(#SVGID_00000052812431938193742470000015966875593610717878_);" points="5477.21,-593.54 
					5621.45,-468.15 5621.45,-465.54 5474.2,-593.54 				"/>
				<polygon style="clip-path:url(#SVGID_00000052812431938193742470000015966875593610717878_);" points="5480.21,-593.54 
					5621.45,-470.76 5621.45,-468.15 5477.21,-593.54 				"/>
				<polygon style="clip-path:url(#SVGID_00000052812431938193742470000015966875593610717878_);" points="5483.22,-593.54 
					5621.45,-473.38 5621.45,-470.76 5480.21,-593.54 				"/>
				<polygon style="clip-path:url(#SVGID_00000052812431938193742470000015966875593610717878_);" points="5486.22,-593.54 
					5621.45,-475.99 5621.45,-473.38 5483.22,-593.54 				"/>
				<polygon style="clip-path:url(#SVGID_00000052812431938193742470000015966875593610717878_);" points="5489.23,-593.54 
					5621.45,-478.6 5621.45,-475.99 5486.22,-593.54 				"/>
				<polygon style="clip-path:url(#SVGID_00000052812431938193742470000015966875593610717878_);" points="5492.23,-593.54 
					5621.45,-481.21 5621.45,-478.6 5489.23,-593.54 				"/>
				<polygon style="clip-path:url(#SVGID_00000052812431938193742470000015966875593610717878_);" points="5495.24,-593.54 
					5621.45,-483.82 5621.45,-481.21 5492.23,-593.54 				"/>
				<polygon style="clip-path:url(#SVGID_00000052812431938193742470000015966875593610717878_);" points="5498.24,-593.54 
					5621.45,-486.44 5621.45,-483.82 5495.24,-593.54 				"/>
				<polygon style="clip-path:url(#SVGID_00000052812431938193742470000015966875593610717878_);" points="5501.25,-593.54 
					5621.45,-489.05 5621.45,-486.44 5498.24,-593.54 				"/>
				<polygon style="clip-path:url(#SVGID_00000052812431938193742470000015966875593610717878_);" points="5504.25,-593.54 
					5621.45,-491.66 5621.45,-489.05 5501.25,-593.54 				"/>
				<polygon style="clip-path:url(#SVGID_00000052812431938193742470000015966875593610717878_);" points="5507.26,-593.54 
					5621.45,-494.27 5621.45,-491.66 5504.25,-593.54 				"/>
				<polygon style="clip-path:url(#SVGID_00000052812431938193742470000015966875593610717878_);" points="5510.26,-593.54 
					5621.45,-496.89 5621.45,-494.27 5507.26,-593.54 				"/>
				<polygon style="clip-path:url(#SVGID_00000052812431938193742470000015966875593610717878_);" points="5513.27,-593.54 
					5621.45,-499.5 5621.45,-496.89 5510.26,-593.54 				"/>
				<polygon style="clip-path:url(#SVGID_00000052812431938193742470000015966875593610717878_);" points="5516.27,-593.54 
					5621.45,-502.11 5621.45,-499.5 5513.27,-593.54 				"/>
				<polygon style="clip-path:url(#SVGID_00000052812431938193742470000015966875593610717878_);" points="5519.28,-593.54 
					5621.45,-504.72 5621.45,-502.11 5516.27,-593.54 				"/>
				<polygon style="clip-path:url(#SVGID_00000052812431938193742470000015966875593610717878_);" points="5522.28,-593.54 
					5621.45,-507.34 5621.45,-504.72 5519.28,-593.54 				"/>
				<polygon style="clip-path:url(#SVGID_00000052812431938193742470000015966875593610717878_);" points="5525.29,-593.54 
					5621.45,-509.95 5621.45,-507.34 5522.28,-593.54 				"/>
				<polygon style="clip-path:url(#SVGID_00000052812431938193742470000015966875593610717878_);" points="5528.29,-593.54 
					5621.45,-512.56 5621.45,-509.95 5525.29,-593.54 				"/>
				<polygon style="clip-path:url(#SVGID_00000052812431938193742470000015966875593610717878_);" points="5531.3,-593.54 
					5621.45,-515.17 5621.45,-512.56 5528.29,-593.54 				"/>
				<polygon style="clip-path:url(#SVGID_00000052812431938193742470000015966875593610717878_);" points="5534.3,-593.54 
					5621.45,-517.78 5621.45,-515.17 5531.3,-593.54 				"/>
				<polygon style="clip-path:url(#SVGID_00000052812431938193742470000015966875593610717878_);" points="5537.31,-593.54 
					5621.45,-520.4 5621.45,-517.78 5534.3,-593.54 				"/>
				<polygon style="clip-path:url(#SVGID_00000052812431938193742470000015966875593610717878_);" points="5540.31,-593.54 
					5621.45,-523.01 5621.45,-520.4 5537.31,-593.54 				"/>
				<polygon style="clip-path:url(#SVGID_00000052812431938193742470000015966875593610717878_);" points="5543.32,-593.54 
					5621.45,-525.62 5621.45,-523.01 5540.31,-593.54 				"/>
				<polygon style="clip-path:url(#SVGID_00000052812431938193742470000015966875593610717878_);" points="5546.32,-593.54 
					5621.45,-528.23 5621.45,-525.62 5543.32,-593.54 				"/>
				<polygon style="clip-path:url(#SVGID_00000052812431938193742470000015966875593610717878_);" points="5549.33,-593.54 
					5621.45,-530.85 5621.45,-528.23 5546.32,-593.54 				"/>
				<polygon style="clip-path:url(#SVGID_00000052812431938193742470000015966875593610717878_);" points="5552.33,-593.54 
					5621.45,-533.46 5621.45,-530.85 5549.33,-593.54 				"/>
				<polygon style="clip-path:url(#SVGID_00000052812431938193742470000015966875593610717878_);" points="5555.34,-593.54 
					5621.45,-536.07 5621.45,-533.46 5552.33,-593.54 				"/>
				<polygon style="clip-path:url(#SVGID_00000052812431938193742470000015966875593610717878_);" points="5558.34,-593.54 
					5621.45,-538.68 5621.45,-536.07 5555.34,-593.54 				"/>
				<polygon style="clip-path:url(#SVGID_00000052812431938193742470000015966875593610717878_);" points="5561.35,-593.54 
					5621.45,-541.29 5621.45,-538.68 5558.34,-593.54 				"/>
				<polygon style="clip-path:url(#SVGID_00000052812431938193742470000015966875593610717878_);" points="5564.35,-593.54 
					5621.45,-543.91 5621.45,-541.29 5561.35,-593.54 				"/>
				<polygon style="clip-path:url(#SVGID_00000052812431938193742470000015966875593610717878_);" points="5567.36,-593.54 
					5621.45,-546.52 5621.45,-543.91 5564.35,-593.54 				"/>
				<polygon style="clip-path:url(#SVGID_00000052812431938193742470000015966875593610717878_);" points="5570.36,-593.54 
					5621.45,-549.13 5621.45,-546.52 5567.36,-593.54 				"/>
				<polygon style="clip-path:url(#SVGID_00000052812431938193742470000015966875593610717878_);" points="5573.37,-593.54 
					5621.45,-551.74 5621.45,-549.13 5570.36,-593.54 				"/>
				<polygon style="clip-path:url(#SVGID_00000052812431938193742470000015966875593610717878_);" points="5576.37,-593.54 
					5621.45,-554.36 5621.45,-551.74 5573.37,-593.54 				"/>
				<polygon style="clip-path:url(#SVGID_00000052812431938193742470000015966875593610717878_);" points="5579.38,-593.54 
					5621.45,-556.97 5621.45,-554.36 5576.37,-593.54 				"/>
				<polygon style="clip-path:url(#SVGID_00000052812431938193742470000015966875593610717878_);" points="5582.38,-593.54 
					5621.45,-559.58 5621.45,-556.97 5579.38,-593.54 				"/>
				<polygon style="clip-path:url(#SVGID_00000052812431938193742470000015966875593610717878_);" points="5585.39,-593.54 
					5621.45,-562.19 5621.45,-559.58 5582.38,-593.54 				"/>
				<polygon style="clip-path:url(#SVGID_00000052812431938193742470000015966875593610717878_);" points="5588.39,-593.54 
					5621.45,-564.8 5621.45,-562.19 5585.39,-593.54 				"/>
				<polygon style="clip-path:url(#SVGID_00000052812431938193742470000015966875593610717878_);" points="5591.4,-593.54 
					5621.45,-567.42 5621.45,-564.8 5588.39,-593.54 				"/>
				<polygon style="clip-path:url(#SVGID_00000052812431938193742470000015966875593610717878_);" points="5594.4,-593.54 
					5621.45,-570.03 5621.45,-567.42 5591.4,-593.54 				"/>
				<polygon style="clip-path:url(#SVGID_00000052812431938193742470000015966875593610717878_);" points="5597.41,-593.54 
					5621.45,-572.64 5621.45,-570.03 5594.4,-593.54 				"/>
				<polygon style="clip-path:url(#SVGID_00000052812431938193742470000015966875593610717878_);" points="5600.41,-593.54 
					5621.45,-575.25 5621.45,-572.64 5597.41,-593.54 				"/>
				<polygon style="clip-path:url(#SVGID_00000052812431938193742470000015966875593610717878_);" points="5603.42,-593.54 
					5621.45,-577.87 5621.45,-575.25 5600.41,-593.54 				"/>
				<polygon style="clip-path:url(#SVGID_00000052812431938193742470000015966875593610717878_);" points="5606.42,-593.54 
					5621.45,-580.48 5621.45,-577.87 5603.42,-593.54 				"/>
				<polygon style="clip-path:url(#SVGID_00000052812431938193742470000015966875593610717878_);" points="5609.43,-593.54 
					5621.45,-583.09 5621.45,-580.48 5606.42,-593.54 				"/>
				<polygon style="clip-path:url(#SVGID_00000052812431938193742470000015966875593610717878_);" points="5612.43,-593.54 
					5621.45,-585.7 5621.45,-583.09 5609.43,-593.54 				"/>
				<polygon style="clip-path:url(#SVGID_00000052812431938193742470000015966875593610717878_);" points="5615.44,-593.54 
					5621.45,-588.32 5621.45,-585.7 5612.43,-593.54 				"/>
				<polygon style="clip-path:url(#SVGID_00000052812431938193742470000015966875593610717878_);" points="5618.44,-593.54 
					5621.45,-590.93 5621.45,-588.32 5615.44,-593.54 				"/>
				<polygon style="clip-path:url(#SVGID_00000052812431938193742470000015966875593610717878_);" points="5621.45,-593.54 
					5621.45,-590.93 5618.44,-593.54 				"/>
				<path style="clip-path:url(#SVGID_00000052812431938193742470000015966875593610717878_);" d="M5621.45-593.54L5621.45-593.54z"
					/>
			</g>
		</g>
		<g>
			<path d="M5711.7-473.72h-39.73l-14.22,67.27h-38.84l39.73-187.09h81.49c18.79,0,32.73,4.82,41.82,14.47
				c9.1,9.65,11.53,24.58,7.3,44.8c-4.74,22.09-13.67,37.7-26.78,46.84C5749.35-478.29,5732.43-473.72,5711.7-473.72z
				 M5726.93-561.05h-36.43l-11.68,55.09h36.43c9.22,0,16.88-2.24,22.97-6.73c6.09-4.48,10.15-11.59,12.19-21.32
				c2.11-9.73,1.04-16.67-3.24-20.82C5742.9-558.97,5736.15-561.05,5726.93-561.05z"/>
		</g>
		<g>
			<path d="M5831.13-593.54h39.73l-24.5,115c-2.71,12.86-3.17,22.26-1.4,28.18c2.54,10.49,11.76,15.74,27.67,15.74
				c15.82,0,27.2-5.25,34.14-15.74c4.32-5.92,7.83-15.31,10.53-28.18l24.5-115h39.73l-24.5,115c-4.23,19.89-10.62,35.37-19.17,46.46
				c-15.82,20.31-39.94,30.46-72.35,30.46c-32.41,0-52.25-10.15-59.53-30.46c-3.81-11.08-3.6-26.57,0.63-46.46L5831.13-593.54z"/>
		</g>
		<g>
			<path d="M6019.62-464.2c-0.59,8.55,0.38,14.94,2.92,19.17c4.74,7.7,14.81,11.55,30.21,11.55c9.22,0,16.92-1.02,23.1-3.05
				c11.76-3.89,18.74-11.13,20.94-21.71c1.35-6.18-0.34-10.96-5.08-14.34c-4.65-3.3-12.52-6.22-23.61-8.76l-18.91-4.44
				c-18.53-4.4-30.97-9.18-37.32-14.34c-10.75-8.63-14.17-22.13-10.28-40.49c3.55-16.75,12.61-30.67,27.16-41.76
				c14.55-11.08,33.64-16.63,57.24-16.63c19.72,0,35.41,5.23,47.09,15.68c11.68,10.45,15.74,25.62,12.19,45.5h-37.57
				c1.78-11.25-1.4-19.25-9.52-23.99c-5.42-3.13-12.65-4.7-21.7-4.7c-10.07,0-18.55,2.03-25.45,6.09
				c-6.9,4.06-11.11,9.73-12.63,17.01c-1.44,6.69,0.46,11.68,5.71,14.98c3.3,2.2,10.87,4.78,22.72,7.74l30.59,7.74
				c13.37,3.39,23.06,7.91,29.07,13.58c9.31,8.8,12.19,21.54,8.63,38.21c-3.64,17.09-13.2,31.29-28.69,42.58
				c-15.49,11.3-35.16,16.94-59.02,16.94c-24.37,0-42.35-5.56-53.94-16.69c-11.59-11.13-15.32-26.42-11.17-45.88H6019.62z"/>
		</g>
	</g>
	<g>
		<path d="M6225.18-1357.77c-38.36-90.69-93.27-172.13-163.19-242.06c-69.93-69.93-151.37-124.84-242.06-163.19
			c-93.91-39.72-193.65-59.86-296.44-59.86c-102.79,0-202.53,20.14-296.44,59.86c-90.69,38.36-172.13,93.27-242.06,163.19
			c-69.93,69.93-124.84,151.37-163.19,242.06c-39.72,93.91-59.86,193.65-59.86,296.44c0,102.8,20.14,202.53,59.86,296.44
			c19.28,45.58,42.74,88.82,70.19,129.44h77.82c-36.09-46.82-66.4-98.31-89.82-153.41l305.9-420.64l53.77,77.25L5057.08-881.2h77.57
			l168.55-231.78l229.04-314.79l229.56,329.57l0.02,0.03l25.11,36.04l0.1-0.13l127.06,181.06h76.39v0.83l0.56-0.39l-165.01-235.13
			l62.78-86.33l281.76,404.8c-23.88,58.34-55.45,112.74-93.41,161.97H6155c27.44-40.62,50.91-83.86,70.19-129.44
			c39.72-93.91,59.86-193.65,59.86-296.44C6285.04-1164.12,6264.9-1263.86,6225.18-1357.77z M6195.92-870.82l-305.98-439.6
			l-101.9,140.12l-254.67-365.63l-254.65,349.98L5187-1317.71l-332.8,457.62c-19.21-63.75-29.54-131.31-29.54-201.24
			c0-385.33,313.49-698.82,698.82-698.82c385.33,0,698.82,313.49,698.82,698.82C6222.31-995.31,6213.1-931.4,6195.92-870.82z"/>
	</g>
</g>
<g>
	<path class="st2" d="M8015.02-1357.77c-38.36-90.69-93.27-172.13-163.19-242.06c-69.93-69.93-151.37-124.84-242.06-163.19
		c-93.91-39.72-193.65-59.86-296.44-59.86s-202.53,20.14-296.44,59.86c-90.69,38.36-172.13,93.27-242.06,163.19
		c-69.93,69.93-124.84,151.37-163.19,242.06c-39.72,93.91-59.86,193.65-59.86,296.44c0,102.8,20.14,202.53,59.86,296.44
		c19.28,45.58,42.74,88.82,70.19,129.44h77.82c-36.09-46.82-66.4-98.31-89.82-153.41l305.9-420.64l53.77,77.25L6846.91-881.2h77.57
		l168.55-231.78l229.04-314.79l229.56,329.57l0.02,0.03l25.11,36.04l0.1-0.13l127.06,181.06h76.39v0.83l0.56-0.39l-165.01-235.13
		l62.78-86.33l281.76,404.8c-23.88,58.34-55.45,112.74-93.41,161.97h77.84c27.45-40.62,50.91-83.86,70.19-129.44
		c39.72-93.91,59.86-193.65,59.86-296.44C8074.88-1164.12,8054.74-1263.86,8015.02-1357.77z M7985.75-870.82l-305.98-439.6
		l-101.9,140.12l-254.67-365.63l-254.65,349.98l-91.71-131.76l-332.8,457.62c-19.21-63.75-29.54-131.31-29.54-201.24
		c0-385.33,313.49-698.82,698.82-698.82s698.82,313.49,698.82,698.82C8012.14-995.31,8002.94-931.4,7985.75-870.82z"/>
</g>
<g>
	<path class="st0" d="M1797.12-988.69c-38.36-90.69-93.27-172.13-163.19-242.06c-69.93-69.93-151.37-124.84-242.06-163.19
		c-93.91-39.72-193.65-59.86-296.44-59.86s-202.53,20.14-296.44,59.86c-90.69,38.36-172.13,93.27-242.06,163.19
		c-69.93,69.93-124.84,151.37-163.19,242.06c-39.72,93.91-59.86,193.65-59.86,296.44c0,102.8,20.14,202.53,59.86,296.44
		c19.28,45.58,42.74,88.82,70.19,129.44h77.82c-36.09-46.82-66.4-98.31-89.82-153.41l305.9-420.64l53.77,77.25L629.01-512.11h77.57
		l168.55-231.78l229.04-314.79l229.56,329.57l0.02,0.03l25.11,36.04l0.1-0.13l127.06,181.06h76.39v0.83l0.56-0.39l-165.01-235.13
		l62.78-86.33l281.76,404.8c-23.88,58.34-55.45,112.74-93.41,161.97h77.84c27.45-40.62,50.91-83.86,70.19-129.44
		c39.72-93.91,59.86-193.65,59.86-296.44C1856.98-795.04,1836.84-894.78,1797.12-988.69z M1767.85-501.74l-305.98-439.6
		l-101.9,140.12l-254.67-365.63L850.65-816.86l-91.71-131.76L426.14-491c-19.21-63.75-29.54-131.31-29.54-201.24
		c0-385.33,313.49-698.82,698.82-698.82s698.82,313.49,698.82,698.82C1794.24-626.23,1785.04-562.32,1767.85-501.74z"/>
</g>
<g>
	<path d="M9804.85-1357.77c-38.36-90.69-93.26-172.13-163.19-242.06c-69.93-69.93-151.37-124.84-242.06-163.19
		c-93.91-39.72-193.65-59.86-296.44-59.86c-102.8,0-202.53,20.14-296.44,59.86c-90.69,38.36-172.13,93.27-242.06,163.19
		c-69.93,69.93-124.84,151.37-163.2,242.06c-39.72,93.91-59.86,193.65-59.86,296.44c0,102.8,20.14,202.53,59.86,296.44
		c19.28,45.58,42.74,88.82,70.19,129.44h77.82c-36.09-46.82-66.4-98.31-89.82-153.41l305.9-420.64l53.77,77.25L8636.75-881.2h77.57
		l168.55-231.78l229.04-314.79l229.56,329.57l0.02,0.03l25.11,36.04l0.1-0.13l127.06,181.06h76.39v0.83l0.56-0.39l-165.01-235.13
		l62.78-86.33l281.76,404.8c-23.88,58.34-55.45,112.74-93.41,161.97h77.84c27.45-40.62,50.91-83.86,70.19-129.44
		c39.72-93.91,59.86-193.65,59.86-296.44C9864.71-1164.12,9844.57-1263.86,9804.85-1357.77z M9775.59-870.82l-305.98-439.6
		l-101.9,140.12l-254.67-365.63l-254.65,349.98l-91.71-131.76l-332.8,457.62c-19.21-63.75-29.54-131.31-29.54-201.24
		c0-385.33,313.49-698.82,698.82-698.82s698.82,313.49,698.82,698.82C9801.98-995.31,9792.77-931.4,9775.59-870.82z"/>
</g>
<rect x="277.29" y="-2622.38" transform="matrix(-1.836970e-16 1 -1 -1.836970e-16 -1972.1947 -2899.6777)" class="st5" width="372.9" height="372.9"/>
<rect x="921.16" y="-2622.38" transform="matrix(-1.836970e-16 1 -1 -1.836970e-16 -1328.3314 -3543.541)" class="st6" width="372.9" height="372.9"/>
<rect x="1540.66" y="-2622.38" transform="matrix(-1.836970e-16 1 -1 -1.836970e-16 -708.8326 -4163.0396)" class="st7" width="372.9" height="372.9"/>
</svg>
